<?xml version="1.0" encoding="utf-8"?>
<!-- Generator: Adobe Illustrator 26.3.1, SVG Export Plug-In . SVG Version: 6.00 Build 0)  -->
<svg version="1.1" id="Layer_1" xmlns="http://www.w3.org/2000/svg" xmlns:xlink="http://www.w3.org/1999/xlink" x="0px" y="0px"
	 viewBox="0 0 56 56" style="enable-background:new 0 0 56 56;" xml:space="preserve">
<style type="text/css">
	.st0{fill:#003283;stroke:#003283;stroke-miterlimit:10;}
	.st1{fill:#003283;}
	.st2{fill:#FFFFFF;}
	.st3{fill:#FFCC00;}
</style>
<path class="st0" d="M41.2,4.6h-2.5v3.9H17.9l0-3.9h-2.5v3.9h-4c-1.8,0-3.4,0.7-4.5,1.9c-1.2,1.2-1.9,2.8-1.9,4.5V46
	c0,1.8,0.7,3.4,1.9,4.5c1.2,1.2,2.8,1.9,4.5,1.9h33.7c1.8,0,3.4-0.7,4.5-1.9c1.2-1.2,1.9-2.8,1.9-4.5V21.4v-2.6v-3.9
	c0-1.8-0.7-3.4-1.9-4.5c-1.2-1.2-2.8-1.9-4.5-1.9h-4V4.6z M38.8,13.6h2.5V11h4c2.2,0,4,1.8,4,4v3.9v0.1H7.5v-4c0-2.2,1.8-4,4-4h4
	v2.6h2.5V11h20.9V13.6z M11.5,50c-2.2,0-4-1.8-4-4V21.3h41.6V46c0,2.2-1.8,4-4,4H11.5z"/>
<path class="st1" d="M30.9,24.1h-5.2c-1.4,0-2.5,1.1-2.5,2.5v5.2c0,1.4,1.1,2.5,2.5,2.5h5.2c1.4,0,2.5-1.1,2.5-2.5v-5.2
	C33.5,25.2,32.3,24.1,30.9,24.1 M25.7,26.6L25.7,26.6l5.3-0.1l0,5.3h-5.3V26.6L25.7,26.6L25.7,26.6z"/>
<path class="st2" d="M30.9,23.9h-5.2c-1.5,0-2.7,1.2-2.7,2.7v5.2c0,1.5,1.2,2.7,2.7,2.7h5.2c1.5,0,2.7-1.2,2.7-2.7v-5.2
	C33.6,25.1,32.4,23.9,30.9,23.9 M25.8,34.3L25.8,34.3c-1.4,0-2.5-1.1-2.5-2.5v-5.2c0-1.4,1.1-2.5,2.5-2.5h5.2c1.4,0,2.5,1.1,2.5,2.5
	v5.2c0,1.4-1.1,2.5-2.5,2.5H25.8z M31,26.5h-5.3v0.1h0.1h-0.1v5.3H31L31,26.5z M25.8,26.7h5l0,5h-5V26.7z"/>
<path class="st3" d="M43.9,24.1h-5.2c-1.4,0-2.5,1.1-2.5,2.5v5.2c0,1.4,1.1,2.5,2.5,2.5h5.2c1.4,0,2.5-1.1,2.5-2.5v-5.2
	C46.4,25.2,45.3,24.1,43.9,24.1 M38.6,26.6L38.6,26.6l5.3-0.1l0,5.3h-5.3V26.6L38.6,26.6L38.6,26.6z"/>
<path class="st2" d="M43.9,23.9h-5.2c-1.5,0-2.7,1.2-2.7,2.7v5.2c0,1.5,1.2,2.7,2.7,2.7h5.2c1.5,0,2.7-1.2,2.7-2.7v-5.2
	C46.6,25.1,45.4,23.9,43.9,23.9 M38.7,34.3L38.7,34.3c-1.4,0-2.5-1.1-2.5-2.5v-5.2c0-1.4,1.1-2.5,2.5-2.5h5.2c1.4,0,2.5,1.1,2.5,2.5
	v5.2c0,1.4-1.1,2.5-2.5,2.5H38.7z M44,26.5h-5.3v0.1h0.1h-0.1v5.3H44L44,26.5z M38.8,26.7h5l0,5h-5V26.7z"/>
<path class="st1" d="M18,37h-5.2c-1.4,0-2.5,1.1-2.5,2.5v5.2c0,1.4,1.1,2.5,2.5,2.5H18c1.4,0,2.5-1.1,2.5-2.5v-5.2
	C20.5,38.2,19.4,37,18,37 M12.7,39.6L12.7,39.6l5.3-0.1l0,5.3h-5.3V39.6L12.7,39.6L12.7,39.6z"/>
<path class="st2" d="M18,36.9h-5.2c-1.5,0-2.7,1.2-2.7,2.7v5.2c0,1.5,1.2,2.7,2.7,2.7H18c1.5,0,2.7-1.2,2.7-2.7v-5.2
	C20.6,38.1,19.4,36.9,18,36.9 M12.8,47.3L12.8,47.3c-1.4,0-2.5-1.1-2.5-2.5v-5.2c0-1.4,1.1-2.5,2.5-2.5H18c1.4,0,2.5,1.1,2.5,2.5
	v5.2c0,1.4-1.1,2.5-2.5,2.5H12.8z M18,39.5h-5.3v0.1h0.1h-0.1v5.3h5.3L18,39.5z M12.9,39.6h5l0,5h-5V39.6z"/>
<path class="st1" d="M30.9,37h-5.2c-1.4,0-2.5,1.1-2.5,2.5v5.2c0,1.4,1.1,2.5,2.5,2.5h5.2c1.4,0,2.5-1.1,2.5-2.5v-5.2
	C33.5,38.2,32.3,37,30.9,37 M25.7,39.6L25.7,39.6l5.3-0.1l0,5.3h-5.3V39.6L25.7,39.6L25.7,39.6z"/>
<path class="st2" d="M30.9,36.9h-5.2c-1.5,0-2.7,1.2-2.7,2.7v5.2c0,1.5,1.2,2.7,2.7,2.7h5.2c1.5,0,2.7-1.2,2.7-2.7v-5.2
	C33.6,38.1,32.4,36.9,30.9,36.9 M25.8,47.3L25.8,47.3c-1.4,0-2.5-1.1-2.5-2.5v-5.2c0-1.4,1.1-2.5,2.5-2.5h5.2c1.4,0,2.5,1.1,2.5,2.5
	v5.2c0,1.4-1.1,2.5-2.5,2.5H25.8z M31,39.5h-5.3v0.1h0.1h-0.1v5.3H31L31,39.5z M25.8,39.6h5l0,5h-5V39.6z"/>
<path class="st1" d="M43.9,37h-5.2c-1.4,0-2.5,1.1-2.5,2.5v5.2c0,1.4,1.1,2.5,2.5,2.5h5.2c1.4,0,2.5-1.1,2.5-2.5v-5.2
	C46.4,38.2,45.3,37,43.9,37 M38.6,39.6L38.6,39.6l5.3-0.1l0,5.3h-5.3V39.6L38.6,39.6L38.6,39.6z"/>
<path class="st2" d="M43.9,36.9h-5.2c-1.5,0-2.7,1.2-2.7,2.7v5.2c0,1.5,1.2,2.7,2.7,2.7h5.2c1.5,0,2.7-1.2,2.7-2.7v-5.2
	C46.6,38.1,45.4,36.9,43.9,36.9 M38.7,47.3L38.7,47.3c-1.4,0-2.5-1.1-2.5-2.5v-5.2c0-1.4,1.1-2.5,2.5-2.5h5.2c1.4,0,2.5,1.1,2.5,2.5
	v5.2c0,1.4-1.1,2.5-2.5,2.5H38.7z M44,39.5h-5.3v0.1h0.1h-0.1v5.3H44L44,39.5z M38.8,39.6h5l0,5h-5V39.6z"/>
</svg>
