<?xml version="1.0" encoding="utf-8"?>
<!-- Generator: Adobe Illustrator 26.3.1, SVG Export Plug-In . SVG Version: 6.00 Build 0)  -->
<svg version="1.1" id="Layer_1" xmlns="http://www.w3.org/2000/svg" xmlns:xlink="http://www.w3.org/1999/xlink" x="0px" y="0px"
	 viewBox="0 0 56 56" style="enable-background:new 0 0 56 56;" xml:space="preserve">
<style type="text/css">
	.st0{fill:#0d6efd;stroke:#0d6efd;stroke-width:1.5;stroke-miterlimit:10;}
	.st1{fill:#FFFFFF;stroke:#FFFFFF;stroke-width:4;stroke-linecap:round;stroke-linejoin:round;stroke-miterlimit:10;}
	.st2{fill:none;stroke:#0d6efd;stroke-width:1.5;stroke-linecap:round;stroke-linejoin:round;stroke-miterlimit:10;}
	.st3{fill:none;stroke:#428ECC;stroke-width:1.5;stroke-linecap:round;stroke-linejoin:round;stroke-miterlimit:10;}
	.st4{fill:#FFCC00;}
</style>
<path class="st0" d="M40.3,35.1c0.1-0.1,0.3-0.2,0.5-0.2c7.9-1.3,13.9-6.7,13.9-13.1c0-7.5-7.9-13.5-17.7-13.5s-17.7,6-17.7,13.5
	c0,6.1,5.4,11.3,12.8,12.9c0.5,0.1,0.7,0.5,0.7,0.9l-0.3,5c0,0.8,0.9,1.3,1.5,0.7L40.3,35.1z"/>
<path class="st1" d="M15.5,40.8C7.4,39.6,1.3,34.1,1.3,27.6c0-7.5,7.9-13.5,17.7-13.5s17.7,6,17.7,13.5c0,6.3-5.8,11.6-13.5,13
	l0.6,7.9L15.5,40.8z"/>
<path class="st2" d="M15.5,40.8C7.4,39.6,1.3,34.1,1.3,27.6c0-7.5,7.9-13.5,17.7-13.5s17.7,6,17.7,13.5c0,6.3-5.8,11.6-13.5,13
	l0.6,7.9L15.5,40.8z"/>
<path class="st3" d="M28.3,35.3"/>
<circle class="st4" cx="12.2" cy="27.2" r="2.1"/>
<circle class="st4" cx="19.4" cy="27.2" r="2.1"/>
<circle class="st4" cx="26.4" cy="27.2" r="2.1"/>
</svg>
