<?xml version="1.0" encoding="utf-8"?>
<!-- Generator: Adobe Illustrator 26.2.1, SVG Export Plug-In . SVG Version: 6.00 Build 0)  -->
<svg version="1.1" id="Layer_1" xmlns="http://www.w3.org/2000/svg" xmlns:xlink="http://www.w3.org/1999/xlink" x="0px" y="0px"
	 viewBox="0 0 56.7 56.7" style="enable-background:new 0 0 56.7 56.7;" xml:space="preserve">
<style type="text/css">
	.st0{fill:none;stroke:#FFCC00;stroke-linecap:round;stroke-linejoin:round;stroke-miterlimit:10;}
	.st1{fill:none;stroke:#0d6efd;stroke-width:2.5;stroke-linecap:round;stroke-linejoin:round;stroke-miterlimit:10;}
	.st2{fill:none;stroke:#0d6efd;stroke-width:4;stroke-linecap:round;stroke-linejoin:round;stroke-miterlimit:10;}
</style>
<path class="st0" d="M38.8,39.7l-9.8,9.1l-9.8-9.1c-3.7-3.4-5.7-8.2-5.7-13.2V13.4c0,0,11.5-5.6,15.5-5.6s15.5,5.6,15.5,5.6v13.1
	C44.6,31.5,42.5,36.3,38.8,39.7z"/>
<path class="st1" d="M40.7,41.9L29.1,52.7L17.5,41.9c-4.4-4.1-6.9-9.8-6.9-15.8V11.2c0,0,13.8-6.3,18.5-6.3s18.5,6.3,18.5,6.3v14.8
	C47.6,32.1,45.1,37.8,40.7,41.9z"/>
<polyline class="st2" points="21.5,26.7 26.4,31.6 36.7,21.3 "/>
</svg>
