<?xml version="1.0" encoding="utf-8"?>
<!-- Generator: Adobe Illustrator 26.2.1, SVG Export Plug-In . SVG Version: 6.00 Build 0)  -->
<svg version="1.1" id="Layer_1" xmlns="http://www.w3.org/2000/svg" xmlns:xlink="http://www.w3.org/1999/xlink" x="0px" y="0px"
	 viewBox="0 0 200 200" style="enable-background:new 0 0 200 200;" xml:space="preserve">
<style type="text/css">
	.st0{fill:none;}
</style>
<g>
	<g>
		<path d="M10,102.2c0,0-0.1-4.6,0-5.1c0.3-2.2,1.1-4.3,2.1-6.3c6-12.3,21.9-15.3,31.9-6c7.3,6.8,8.6,18.2,3.2,26.7
			c-5,7.8-15.2,11.3-24.1,7.9c-7-2.7-11.1-7.9-12.9-15.2 M47.6,100.2c0-9.7-7.8-17.9-17.1-17.9c-9.7-0.1-17.7,7.9-17.8,17.6
			c-0.1,9.7,7.9,17.7,17.5,17.8C39.8,117.7,47.6,109.8,47.6,100.2z"/>
		<path d="M24.4,93.5H36c0.1,0,0.1,0,0.1-0.1c0-1.7-0.1-3.5,0-5.2c0-0.6,0.3-1.4,0.7-1.6c0.4-0.2,1.2,0.1,1.7,0.4
			c4.5,3.4,6.6,7.9,6.4,13.5c-0.1,5-2.3,9-6.3,12c-0.5,0.3-1.3,0.4-1.9,0.7c0,0-0.1,0-0.1-0.1c-0.2-0.6-0.5-1.2-0.5-1.7
			c-0.1-1.6,0-3.4,0-5.1c0-0.1,0-0.1-0.1-0.1H24.4c-0.1,0-0.1,0-0.1,0.1c0,1.7,0,3.5,0,5.2c0,0.6-0.3,1.1-0.5,1.6l-0.1,0.1
			c-0.5-0.2-1.1-0.3-1.6-0.5c-8.9-6.3-9-19.2,0-25.6c0.4-0.3,1.1-0.4,1.6-0.6c0,0,0.1,0,0.1,0.1c0.2,0.6,0.4,1.1,0.4,1.6
			C24.3,90,24.3,91.7,24.4,93.5C24.3,93.5,24.4,93.5,24.4,93.5z M36,97.2H24.4c-0.1,0-0.1,0-0.1,0.1c0,1.6,0,3.1,0,4.6
			c0,0.9,0.3,1,1.1,1c1.8,0,3.6,0,5.5,0H36c0.1,0,0.1,0,0.1-0.1v-4.2L36,97.2C36.1,97.2,36,97.2,36,97.2z M20.6,93.7
			c-2.5,3.7-2.5,9.7,0.1,12.4c0.1,0.1,0.2,0,0.2-0.1c0-1.5,0-10.6,0-12.3C20.8,93.7,20.7,93.7,20.6,93.7z M39.6,106.6
			c2.6-4.2,2.5-10.5,0-12.9c-0.1-0.1-0.2,0-0.2,0.1c0,1.4,0,11,0,12.8C39.5,106.6,39.6,106.6,39.6,106.6z"/>
	</g>
	<g id="Rv2vxC_1_">
		<g>
			<path class="st0" d="M78.1,100.2c0.4-0.3,0.8-0.6,1.2-1c0.4-0.4,0.8-0.8,1.1-1.2c1.9-2.8,1.1-7.5-1.6-9.7c-1.8-1.5-3.9-2-6.1-2
				c-4.5,0-9,0-13.5,0c-0.4,0-0.6,0.1-0.6,0.6c0,9.3,0,18.7,0,28c0,0.2,0,0.3,0,0.5c0.3,0,0.5,0,0.7,0c4.6,0,9.3,0,13.9,0
				c1,0,2-0.1,3-0.4c3.8-0.9,6.4-4,6.5-7.5c0.1-2.2-0.6-4.2-2.3-5.6C79.7,101.2,78.9,100.7,78.1,100.2z M165.8,86.2
				c0,9.7,0,19.4,0,29.1c2.6,0,5.1,0,7.6,0c0-0.2,0-0.4,0-0.6c0-3.4,0-6.9,0-10.3c0-0.5,0.1-0.6,0.6-0.6c2.6,0,5.2,0,7.8,0
				c0.5,0,0.6,0.1,0.6,0.6c0,3.4,0,6.9,0,10.3c0,0.2,0,0.4,0,0.6c2.6,0,5.1,0,7.6,0c0-9.7,0-19.4,0-29.1c-2.5,0-5,0-7.6,0
				c0,0.2,0,0.4,0,0.7c0,3.2,0,6.4,0,9.5c0,0.5-0.1,0.6-0.6,0.6c-2.6,0-5.2,0-7.8,0c-0.4,0-0.6-0.1-0.6-0.6c0-3.2,0-6.5,0-9.7
				c0-0.2,0-0.4,0-0.6C170.8,86.2,168.3,86.2,165.8,86.2z M111.7,100.2c-0.1-0.7-0.2-2.2-0.5-3.6c-0.5-2.3-1.4-4.5-3-6.3
				c-3.4-3.8-7.5-5.4-12.5-4.5c-3.9,0.7-6.9,2.8-8.8,6.3c-2.2,4-2.7,8.4-1.6,12.9c0.6,2.3,1.4,4.4,3,6.2c3.4,3.6,7.4,5.2,12.4,4.3
				c3.1-0.6,5.6-2,7.6-4.4C110.7,108.2,111.6,104.7,111.7,100.2z M131.1,94.3c1.4-1.6,2.8-3.1,4.3-4.6c-0.1-0.1-0.2-0.2-0.3-0.3
				c-2.6-2.2-5.6-3.5-9-3.8c-3.5-0.4-6.6,0.5-9.2,2.8c-2.6,2.3-3.5,5.3-2.5,8.6c0.9,2.9,2.9,4.9,5.9,5.8c2.1,0.6,4.2,1.1,6.3,1.6
				c1.1,0.3,2,1.2,2.1,2.2c0.2,1.1-0.4,2-1.4,2.6c-1,0.6-2,0.5-3,0.4c-1.6-0.3-2.9-1-4.3-1.8c-0.9-0.6-1.7-1.2-2.6-1.8
				c-1.5,1.6-3,3.3-4.6,4.9c0.4,0.4,0.8,0.7,1.2,1c4.3,3.4,9.1,4.8,14.6,3.6c4.3-0.9,8.1-4.7,7.5-10c-0.3-2.9-1.9-4.9-4.3-6.3
				c-1.7-0.9-3.6-1.3-5.5-1.7c-1.2-0.2-2.4-0.4-3.5-1c-1-0.6-1.4-1.4-1.2-2.5c0.2-0.8,0.7-1.3,1.4-1.7c1.3-0.6,2.6-0.5,4-0.2
				C128.4,92.5,129.7,93.3,131.1,94.3z M163.2,91.7c-0.7-0.9-1.3-1.7-2.1-2.5c-3.4-3.2-7.4-4.3-11.9-3.5c-4.2,0.8-7.4,3.2-9.2,7.1
				c-2,4.1-2.2,8.4-1,12.8c1.6,5.8,6.3,9.8,12.3,10.2c4.3,0.3,8-1.3,10.9-4.6c0.4-0.5,0.8-1.1,1.2-1.6c-2.1-1.4-4.1-2.7-6.1-4
				c-0.1,0.2-0.2,0.3-0.2,0.4c-1,1.5-2.3,2.6-4.1,2.8c-2.6,0.2-4.6-0.8-5.9-3c-1.2-2-1.5-4.2-1.3-6.5c0.2-2.1,1-4,2.7-5.4
				c2.3-1.9,5.3-1.9,7.5,0.2c0.5,0.5,0.9,1.1,1.4,1.6C159.1,94.4,161.1,93.1,163.2,91.7z"/>
			<path d="M78.1,100.2c0.8,0.5,1.6,1,2.3,1.6c1.7,1.5,2.4,3.4,2.3,5.6c-0.2,3.5-2.8,6.5-6.5,7.5c-1,0.2-2,0.3-3,0.4
				c-4.6,0-9.3,0-13.9,0c-0.2,0-0.4,0-0.7,0c0-0.2,0-0.4,0-0.5c0-9.3,0-18.7,0-28c0-0.4,0.1-0.6,0.6-0.6c4.5,0,9,0,13.5,0
				c2.3,0,4.4,0.5,6.1,2c2.7,2.3,3.5,7,1.6,9.7c-0.3,0.5-0.7,0.9-1.1,1.2C78.9,99.6,78.5,99.9,78.1,100.2z M65.8,103.5
				c0,0.1,0,0.1,0,0.2c0,1.7,0,3.5,0,5.2c0,0.4,0.2,0.4,0.5,0.4c1.9,0,3.8,0,5.7,0c0.6,0,1.2-0.2,1.7-0.5c1.1-0.6,1.5-2,1.1-3.3
				c-0.4-1.2-1.5-2-2.7-2c-2,0-3.9,0-5.9,0C66.1,103.5,66,103.5,65.8,103.5z M65.8,92.2c0,1.9,0,3.6,0,5.5c1.9,0,3.8,0,5.6,0
				c1.3,0,2.5-1.3,2.5-2.7c0-1.5-1.1-2.8-2.5-2.8c-1.4,0-2.8,0-4.1,0C66.8,92.2,66.3,92.2,65.8,92.2z"/>
			<path d="M165.8,86.2c2.5,0,5,0,7.6,0c0,0.2,0,0.4,0,0.6c0,3.2,0,6.5,0,9.7c0,0.5,0.1,0.6,0.6,0.6c2.6,0,5.2,0,7.8,0
				c0.5,0,0.6-0.1,0.6-0.6c0-3.2,0-6.4,0-9.5c0-0.2,0-0.4,0-0.7c2.5,0,5,0,7.6,0c0,9.7,0,19.4,0,29.1c-2.5,0-5,0-7.6,0
				c0-0.2,0-0.4,0-0.6c0-3.4,0-6.9,0-10.3c0-0.5-0.2-0.6-0.6-0.6c-2.6,0-5.2,0-7.8,0c-0.4,0-0.6,0.1-0.6,0.6c0,3.4,0,6.9,0,10.3
				c0,0.2,0,0.4,0,0.6c-2.6,0-5.1,0-7.6,0C165.8,105.6,165.8,95.9,165.8,86.2z"/>
			<path d="M111.7,100.2c-0.1,4.5-1,7.9-3.4,10.9c-2,2.4-4.5,3.9-7.6,4.4c-4.9,0.9-9-0.7-12.4-4.3c-1.6-1.7-2.4-3.9-3-6.2
				c-1.2-4.5-0.6-8.8,1.6-12.9c1.9-3.5,5-5.5,8.8-6.3c5-0.9,9.1,0.7,12.5,4.5c1.6,1.8,2.4,4,3,6.3
				C111.5,98.1,111.6,99.5,111.7,100.2z M91.9,100.9c0,0.3,0.1,0.8,0.1,1.3c0.3,1.8,0.8,3.5,2.1,4.8c1.5,1.5,3.3,2.1,5.4,1.6
				c1.7-0.5,3-1.6,3.8-3.1c1.5-3.2,1.5-6.4-0.1-9.5c-0.7-1.4-1.8-2.4-3.4-2.9c-2.7-0.8-5.1,0.1-6.6,2.5
				C92.3,97.1,91.9,98.8,91.9,100.9z"/>
			<path d="M131.1,94.3c-1.3-1-2.7-1.8-4.2-2.2c-1.3-0.4-2.7-0.5-4,0.2c-0.7,0.3-1.3,0.9-1.4,1.7c-0.2,1.1,0.2,2,1.2,2.5
				c1.1,0.6,2.3,0.8,3.5,1c1.9,0.4,3.8,0.8,5.5,1.7c2.5,1.4,4,3.3,4.3,6.3c0.6,5.3-3.1,9.1-7.5,10c-5.4,1.2-10.3-0.2-14.6-3.6
				c-0.4-0.3-0.8-0.6-1.2-1c1.6-1.7,3.1-3.3,4.6-4.9c0.9,0.6,1.7,1.2,2.6,1.8c1.3,0.9,2.7,1.6,4.3,1.8c1,0.2,2.1,0.2,3-0.4
				c1-0.6,1.6-1.6,1.4-2.6c-0.1-1-1-1.9-2.1-2.2c-2.1-0.5-4.2-0.9-6.3-1.6c-2.9-0.9-5-2.9-5.9-5.8c-1-3.3-0.1-6.3,2.5-8.6
				c2.6-2.4,5.7-3.2,9.2-2.8c3.4,0.4,6.4,1.6,9,3.8c0.1,0.1,0.2,0.2,0.3,0.3C133.9,91.2,132.5,92.7,131.1,94.3z"/>
			<path d="M163.2,91.7c-2.1,1.4-4.1,2.7-6,4c-0.5-0.6-0.9-1.1-1.4-1.6c-2.1-2.1-5.2-2.1-7.5-0.2c-1.7,1.4-2.5,3.3-2.7,5.4
				c-0.2,2.3,0.1,4.5,1.3,6.5c1.3,2.2,3.4,3.2,5.9,3c1.8-0.1,3.1-1.3,4.1-2.8c0.1-0.1,0.1-0.2,0.2-0.4c2,1.3,4,2.7,6.1,4
				c-0.4,0.6-0.7,1.1-1.2,1.6c-2.9,3.3-6.5,4.9-10.9,4.6c-6-0.4-10.7-4.4-12.3-10.2c-1.2-4.4-0.9-8.7,1-12.8c1.9-3.9,5-6.3,9.2-7.1
				c4.5-0.9,8.6,0.2,11.9,3.5C161.8,90,162.4,90.8,163.2,91.7z"/>
		</g>
	</g>
</g>
</svg>
