<?xml version="1.0" encoding="utf-8"?>
<!-- Generator: Adobe Illustrator 26.2.1, SVG Export Plug-In . SVG Version: 6.00 Build 0)  -->
<svg version="1.1" id="Layer_1" xmlns="http://www.w3.org/2000/svg" xmlns:xlink="http://www.w3.org/1999/xlink" x="0px" y="0px"
	 viewBox="0 0 200 200" style="enable-background:new 0 0 200 200;" xml:space="preserve">
<g>
	<path d="M10,88.7c0.3,0,0.6,0.1,0.9,0.1c6.9,0,13.7,0,20.7,0c0.3,0,0.6,0,0.9,0c0,7.5,0,15,0,22.5c-0.3,0-0.6,0-0.8,0
		c-6.9,0-13.8,0-20.7,0c-0.3,0-0.6,0-0.9,0C10,103.8,10,96.2,10,88.7z M24.2,90.1c0,6.6,0,13.2,0,19.7c4-0.8,7.4-5.3,7.4-9.9
		C31.6,95.5,28.2,90.9,24.2,90.1z M23.1,89.9c-6.8-1.3-12.2,4.3-12.1,9.6C17.3,100.7,23.7,95.5,23.1,89.9z M10.9,100.6
		c0,6.1,6.3,11,12.2,9.6c-0.1-2.5-0.9-4.7-2.7-6.5C18,100.8,14.5,100.2,10.9,100.6z"/>
	<path d="M49.8,98.8c1.9,0,3.8,0,5.6,0c0.8,0,1.5-0.4,1.8-1.2c0.1-0.2,0.1-0.4,0.2-0.5c0.1,0.1,0.2,0.2,0.3,0.2c0,1.7,0,3.4,0,5.2
		c-0.2-0.1-0.4-0.2-0.4-0.3c-0.5-1.1-1.5-1.4-2.6-1.4c-1.6-0.1-3.2,0-4.8,0c0,0.1-0.1,0.2-0.1,0.3c0,2,0,4.1,0,6.1
		c0,1,0.5,1.7,1.5,1.7c1.6,0.1,3.2,0.1,4.8,0c1.1-0.1,2.2-0.8,2.7-1.8c0.1-0.1,0.3-0.2,0.5-0.5c0,1.6,0,3,0,4.5
		c-5.4,0-10.9,0-16.5,0c0.2-0.2,0.3-0.5,0.5-0.5c1.3-0.3,1.7-1.3,1.7-2.5c0.1-1.1,0-2.4,0-3.6c0-3.9,0-7.8,0-11.7
		c0-0.6-0.1-1.2-0.3-1.8c-0.2-0.7-0.7-1-1.3-1.2c-0.2-0.1-0.4-0.2-0.6-0.4c0-0.1,0.1-0.1,0.1-0.2c5.3,0,10.5,0,15.8,0
		c0,1.3,0,2.7,0,4.2c-0.2-0.2-0.4-0.4-0.5-0.5c-0.5-0.8-1.1-1.3-1.9-1.3c-2.2-0.1-4.4,0-6.5,0C49.8,93.9,49.8,96.3,49.8,98.8z"/>
	<path d="M127.1,103.7c0.1-0.8,0.1-1.6,0.3-2.4c0.6-2.7,2.3-4.5,5-5.1c2.2-0.6,4.3-0.6,6.4,0c2.7,0.7,4.4,2.6,4.8,5.3
		c0.3,1.6,0.2,3.3-0.1,4.9c-0.5,2.6-2,4.2-4.5,4.7c-2.5,0.6-4.9,0.7-7.4,0c-2.7-0.7-3.9-2.5-4.3-5
		C127.2,105.3,127.2,104.5,127.1,103.7z M139,104.3c-0.1-1.1-0.1-2.1-0.2-2.9c-0.3-2.4-1.5-3.5-3.6-3.4c-1.6,0.1-2.7,0.9-2.9,2.7
		c-0.2,1.6-0.2,3.3-0.2,4.9c0,0.7,0.2,1.4,0.5,2.1c0.6,1.4,1.7,2,3.4,1.9c1.4-0.1,2.4-0.9,2.7-2.4
		C138.8,106.2,138.9,105.1,139,104.3z"/>
	<path d="M153.5,96.9c2.1-0.3,4.2-0.6,6.3-0.9c0,0.3,0,0.6,0,0.8c0,2.7,0,5.4,0,8.1c0,0.4,0,0.9,0.1,1.2c0.3,1.8,1.9,2.7,4,2.3
		c0.2,0,0.3-0.1,0.5-0.1c1-0.4,1.1-0.4,1.1-1.5c0-2.1,0-4.2,0-6.3c0-0.5-0.1-1-0.3-1.5c-0.2-0.7-0.7-1.1-1.4-1.3
		c-0.2-0.1-0.4-0.3-0.6-0.4c0-0.1,0.1-0.1,0.1-0.2c2.1-0.3,4.3-0.6,6.4-0.9c0,0.3,0,0.5,0,0.8c0,3.6,0,7.1,0,10.7
		c0,0.6,0,1.1,0.2,1.6c0.1,0.7,0.4,1.1,1,1.4c0.2,0.1,0.3,0.3,0.5,0.5c-0.5,0-0.7,0-0.9,0c-1,0-2.2,0-3.2,0c-1.2,0-1.6-0.3-2-1.4
		c-1.1,0.9-2.4,1.5-3.8,1.8c-1.2,0.2-2.5,0.2-3.7-0.4c-1.4-0.7-2.4-1.8-2.4-3.4c-0.1-2.4,0-4.7-0.1-7c0-0.6-0.1-1.2-0.3-1.8
		c-0.2-0.7-0.7-1-1.3-1.2c-0.2-0.1-0.4-0.2-0.6-0.4C153.4,97.1,153.5,97,153.5,96.9z"/>
	<path d="M84.7,107.2c0.3,1-0.1,1.8-0.9,2.5c-2,1.5-4.3,2.1-6.7,1.8c-0.8-0.1-1.4-0.2-2.1-0.4c-2.4-0.8-3.7-2.4-4.3-4.7
		c-0.4-1.6-0.4-3.3,0-4.9c0.8-3.3,3-5.2,6.3-5.4c1-0.1,2.2,0,3.3,0.2c2.8,0.6,4.5,2.6,4.7,5.7c0,0.5,0.1,0.9,0.1,1.3
		c-3.4,0-6.8,0-10.1,0c-0.8,3,1.2,5.5,4.5,5.7c1.7,0.1,3.2-0.4,4.6-1.2C84.4,107.4,84.6,107.3,84.7,107.2z M81.1,101.2
		c0.1-2.5-1-3.8-3.1-3.7c-1.7,0.1-3,1.8-2.8,3.7C77.1,101.2,79.1,101.2,81.1,101.2z"/>
	<path d="M182.3,102.4c1.7,2.2,3.2,4.4,4.9,6.4c0.6,0.7,1.5,1,2.2,1.6c0.2,0.2,0.4,0.3,0.6,0.5c0,0.1-0.1,0.1-0.1,0.2
		c-3.1,0-6.3,0-9.8,0c0.3-0.3,0.4-0.5,0.6-0.6c0.9-0.6,1.1-1.2,0.5-2.2c-0.6-0.8-1.1-1.6-1.8-2.6c-0.9,1.1-1.7,2.2-2.4,3.3
		c-0.3,0.5-0.3,0.9,0.3,1.4c0.1,0.1,0.2,0.4,0.3,0.7c-1.7,0-3.3,0-4.9,0c-0.2,0-0.5,0-0.7,0c0-0.1-0.1-0.1-0.1-0.2
		c0.1-0.2,0.3-0.3,0.4-0.5c0.8-0.6,1.5-0.9,2.2-1.5c1.4-1.4,2.7-2.9,4-4.5c-1.5-2-2.9-4-4.5-5.9c-0.6-0.7-1.4-0.9-2.2-1.4
		c-0.2-0.2-0.4-0.4-0.6-0.5c0-0.1,0.1-0.1,0.1-0.2c3.1,0,6.2,0,9.5,0c-0.3,0.3-0.4,0.5-0.6,0.6c-0.9,0.5-1.1,1.3-0.5,2.2
		c0.5,0.6,0.9,1.2,1.4,1.9c0.7-0.9,1.3-1.7,1.9-2.6c0.4-0.5,0.3-1-0.2-1.4c-0.2-0.1-0.2-0.4-0.4-0.7c2.1,0,4.1,0,6.2,0
		c-0.2,0.3-0.2,0.6-0.4,0.6c-2.2,0.7-3.7,2.2-5,4C183.2,101.3,182.8,101.8,182.3,102.4z"/>
	<path d="M101.4,107.1c0.2,1,0,1.8-0.9,2.5c-3,2.3-6.3,2.5-9.7,1c-2.3-0.9-3.3-2.9-3.6-5.3c-0.2-1.6-0.1-3.2,0.4-4.7
		c0.9-2.9,3.1-4.4,6-4.6c2.3-0.3,4.5,0,6.7,0.8c0.4,0.1,0.5,0.3,0.5,0.7c0,1.2,0,2.5,0,3.7c-0.1,0-0.1,0.1-0.2,0.1
		c-0.3-0.3-0.5-0.6-0.8-0.9c-1-1.6-2.5-2.4-4.4-2.4c-1.4,0-2.5,0.6-3.1,1.8c-1.1,2.2-1.2,4.5-0.2,6.8c0.8,1.8,2.7,2.6,4.9,2.3
		C98.7,108.5,100.1,108,101.4,107.1z"/>
	<path d="M153.2,111c-2.7,0-5.6,0-8.5,0c0.2-0.3,0.3-0.5,0.4-0.5c1.4-0.4,1.7-1.4,1.8-2.7c0.1-0.9,0-1.9,0-2.9c0-4.1,0-8.1,0-12.1
		c0-0.7-0.1-1.2-0.3-1.9c-0.2-0.6-0.7-1-1.3-1.1c-0.2-0.1-0.4-0.3-0.5-0.4c0-0.1,0.1-0.1,0.1-0.2c2.1-0.3,4.1-0.6,6.3-0.9
		c0,0.3,0,0.6,0,0.8c0,6.1,0,12.1,0,18.2c0,0.6,0.1,1.1,0.3,1.7c0.2,0.8,0.7,1.2,1.4,1.4c0.2,0,0.3,0.3,0.5,0.4
		C153.3,110.9,153.2,110.9,153.2,111z"/>
	<path d="M60.8,110.8c0.1-0.1,0.3-0.3,0.4-0.4c1.3-0.3,1.6-1.3,1.7-2.4c0.1-0.9,0-1.9,0-2.8c0-4.2,0-8.3,0-12.5
		c0-0.7-0.2-1.2-0.4-1.9c-0.2-0.6-0.7-0.9-1.3-1.1c-0.1,0-0.2-0.3-0.4-0.4c0.1-0.1,0.2-0.2,0.4-0.2c2-0.3,4-0.6,6-0.8
		c0,0.3,0,0.6,0,0.9c0,6,0,12,0,18c0,0.5,0,0.9,0.1,1.3c0.2,0.9,0.7,1.6,1.6,1.9c0.2,0,0.3,0.3,0.5,0.4c0,0.1-0.1,0.1-0.1,0.2
		c-2.7,0-5.6,0-8.3,0C60.9,110.9,60.9,110.9,60.8,110.8z"/>
	<path d="M102.2,98.3c2-2.1,4-4.1,6.1-6.3c0,1.5,0,2.9,0,4.4c1.6,0,3.1,0,4.6,0c0.3,1.3-0.3,2.1-1.5,2.1c-0.9,0-1.9,0-2.8,0
		c0,0-0.1,0-0.2,0.1c0,0.2,0,0.4,0,0.6c0,2.2,0,4.4,0,6.5c0,2.9,1.7,4.1,4.5,2.8c0.1,0,0.2-0.1,0.3-0.1c0.3,1,0.2,1.4-0.7,2.1
		c-1.7,1.2-3.6,1.5-5.6,0.9c-1.8-0.5-2.7-2-2.8-4.2c0-2.7,0-5.3,0-8c0-0.3,0-0.5,0-0.8c-0.6,0-1.2,0-1.8,0
		C102.3,98.4,102.2,98.3,102.2,98.3z"/>
	<path d="M114.5,110.8c0.2-0.1,0.3-0.3,0.5-0.4c0.9-0.2,1.4-0.9,1.6-1.8c0.1-0.4,0.1-0.7,0.1-1c0-2.5,0-4.8,0-7.3
		c0-0.3,0-0.6-0.1-0.9c-0.2-0.9-0.6-1.6-1.6-1.9c-0.2-0.1-0.4-0.2-0.5-0.4c0-0.1,0-0.2,0.1-0.2c2.1-0.3,4.1-0.6,6.2-0.9c0,1,0,2,0,3
		c1.4-2.2,3-3.8,6-3.1c-0.4,1.3-0.8,2.6-1.1,3.8c0,0.2-0.3,0.3-0.5,0.3c-0.6,0-1.1,0-1.7,0c-1.6,0.1-2.7,1.1-2.7,2.7
		c0,1.6,0,3.2,0,4.8c0,0.5,0.1,0.9,0.3,1.4c0.2,0.7,0.7,1.2,1.4,1.4c0.2,0,0.3,0.3,0.5,0.4c0,0.1-0.1,0.1-0.1,0.2
		c-2.7,0-5.5,0-8.2,0C114.6,110.9,114.5,110.9,114.5,110.8z"/>
</g>
</svg>
