<?xml version="1.0" encoding="utf-8"?>
<!-- Generator: Adobe Illustrator 26.2.1, SVG Export Plug-In . SVG Version: 6.00 Build 0)  -->
<svg version="1.1" id="Layer_1" xmlns="http://www.w3.org/2000/svg" xmlns:xlink="http://www.w3.org/1999/xlink" x="0px" y="0px"
	 viewBox="0 0 200 200" style="enable-background:new 0 0 200 200;" xml:space="preserve">
<style type="text/css">
	.st0{fill:none;stroke:#000000;stroke-width:0.5;stroke-miterlimit:10;}
</style>
<g>
	<g id="L6w4pk.tif">
		<g>
			<path d="M10.1,90.3c4.6,0,9.4,0,14,0c0.4,0,0.5,0.2,0.5,0.5c0,0.8,0,1.5,0,2.3c0,0.4-0.1,0.5-0.5,0.5c-3.3,0-6.6,0-9.9,0
				c-0.4,0-0.6,0.1-0.6,0.6c0,1.4,0,2.9,0,4.3c0,0.4,0.1,0.5,0.5,0.5c3.3,0,6.6,0,9.9,0c0.5,0,0.7,0.1,0.6,0.6c0,0.7,0,1.4,0,2.1
				c0,0.5-0.2,0.6-0.6,0.6c-3.3,0-6.5,0-9.8,0c-0.7,0-0.7,0-0.7,0.7c0,2.4,0,4.6,0,7c0,0.4-0.1,0.5-0.5,0.5c-1,0-2,0.1-3-0.1
				C10.1,103.6,10.1,96.9,10.1,90.3z"/>
			<path d="M93.7,100.3c0-3.1,0-6.2,0-9.4c0-0.7,0-0.7,0.7-0.7c2.2,0,4.3,0,6.6,0c2.7,0,5.2,0.8,7.3,2.6c1.3,1.2,2.2,2.7,2.7,4.4
				c0.4,1.3,0.5,2.6,0.3,4c-0.3,2.6-1.3,4.8-3.4,6.5c-2,1.7-4.3,2.4-7,2.4c-2.2,0-4.3,0-6.6,0c-0.5,0-0.6-0.1-0.6-0.6
				C93.7,106.5,93.7,103.5,93.7,100.3z M97.2,100.3c0,1.4,0,2.7,0,4.2c0,0.9-0.1,1.6,0.1,2.5c0.9,0.2,1.6,0.1,2.5,0.1
				c1,0,2.2,0,3.2-0.3c1.5-0.4,2.7-1.2,3.7-2.6c1.1-1.7,1.2-3.6,0.9-5.5c-0.6-3-3.1-4.9-6.1-5c-1.2,0-2.6,0-3.8,0
				c-0.4,0-0.5,0.1-0.5,0.5C97.2,96.1,97.2,98.2,97.2,100.3z"/>
			<path d="M152.3,90.3c1.3,0,2.8-0.1,4.4,0.1c1.8,0.1,3.4,0.6,4.7,1.9c1.6,1.6,2,3.5,1.6,5.7c-0.4,2.4-1.9,3.9-4.1,4.7
				c-0.3,0.1-0.4,0.2-0.2,0.5c1.4,2,2.8,4.1,4.3,6.1c0.2,0.3,0.3,0.5,0.5,0.8c0.2,0.2,0.2,0.3-0.1,0.3c-1.1,0-2.3,0-3.5,0
				c-0.3,0-0.4-0.2-0.5-0.4c-1.4-2.1-2.8-4.1-4.3-6.1c-0.2-0.3-0.5-0.5-0.9-0.5c-1,0-2.1,0-3.1,0c-0.4,0-0.5,0.1-0.5,0.5
				c0,2,0,4,0,6c0,0.5-0.1,0.6-0.6,0.6c-0.9,0-1.7,0-2.5,0c-0.3,0-0.5-0.1-0.5-0.5c0-6.3,0-12.7,0-19c0-0.4,0.1-0.5,0.5-0.5
				C149.2,90.3,150.6,90.3,152.3,90.3z M150.8,96.9c0,0.9,0,1.8,0,2.7c0,0.5,0.1,0.6,0.6,0.6c1.5,0,2.9,0,4.4,0c0.5,0,0.9,0,1.4-0.2
				c2.1-0.5,3-2.6,2.3-4.4c-0.6-1.4-1.8-1.9-3.2-1.9c-1.7-0.1-3.4,0-5,0c-0.3,0-0.4,0.1-0.4,0.4C150.8,95,150.8,95.9,150.8,96.9z"/>
			<path d="M29.2,100.3c0-3.1,0-6.2,0-9.4c0-0.5,0.1-0.7,0.7-0.7c2.6,0,5.4,0,8,0c1.9,0,3.8,0.4,5.3,1.7c1,0.9,1.6,2.2,1.8,3.5
				c0.1,1,0.2,2.1-0.2,3.1c-0.5,1.5-1.4,2.6-2.7,3.4c-0.4,0.2-0.8,0.4-1.2,0.6c-0.3,0.1-0.3,0.2-0.2,0.5c1.1,1.7,2.4,3.4,3.5,5
				c0.4,0.6,0.9,1.2,1.2,1.8c0.2,0.3,0.1,0.3-0.2,0.3c-1.1,0-2.3,0-3.4,0c-0.3,0-0.4-0.2-0.5-0.3c-1.4-2.1-2.9-4.2-4.3-6.2
				c-0.2-0.3-0.4-0.4-0.7-0.4c-1,0-2.2,0-3.2,0c-0.4,0-0.5,0.1-0.5,0.5c0,2,0,4,0,6c0,0.4-0.1,0.6-0.5,0.5c-0.9,0-1.7,0-2.5,0
				c-0.4,0-0.5-0.1-0.5-0.5C29.3,106.6,29.2,103.4,29.2,100.3z M32.7,96.9c0,0.9,0,1.8,0,2.7c0,0.4,0.1,0.6,0.6,0.6
				c1.2,0,2.4,0,3.6,0c0.8,0,1.4,0,2.2-0.1c2.1-0.5,3.2-2.6,2.3-4.6c-0.7-1.3-1.8-1.7-3.1-1.8c-1.7-0.1-3.4,0-5.1,0
				c-0.3,0-0.4,0.1-0.4,0.4C32.7,95,32.7,95.9,32.7,96.9z"/>
			<path d="M77.4,103c0,1.2,0,2.5,0,3.8c0,0.3-0.1,0.5-0.3,0.7c-1.7,1.3-3.6,2.3-5.7,2.6c-1.9,0.3-3.8,0.3-5.7-0.4
				c-2.3-0.8-4.1-2.3-5.2-4.4c-1.3-2.4-1.5-4.9-1-7.6c0.4-1.9,1.2-3.6,2.6-5c1.2-1.3,2.8-2.3,4.5-2.7c1.1-0.3,2.4-0.4,3.6-0.3
				c1.6,0.1,3.2,0.5,4.6,1.3c0.6,0.4,1.1,0.8,1.7,1.1c0.2,0.2,0.2,0.3,0.1,0.5c-0.6,0.7-1.1,1.4-1.8,2.1c-0.2,0.2-0.4,0.2-0.6,0
				c-1.8-1.5-3.8-2.2-6.1-1.8c-2.2,0.4-3.6,1.7-4.5,3.6c-0.7,1.4-0.9,2.9-0.7,4.4c0.4,2.6,1.6,4.6,4.2,5.5c1.3,0.5,2.7,0.5,4.2,0.2
				c0.9-0.2,1.7-0.6,2.5-1c0.3-0.2,0.4-0.4,0.4-0.7c0-0.9,0-1.8,0-2.6c0-0.4-0.1-0.5-0.6-0.5c-1.3,0-2.6,0-4,0
				c-0.4,0-0.5-0.1-0.5-0.5c0-0.8,0-1.5,0-2.3c0-0.4,0.1-0.4,0.4-0.4c2.5,0,5,0,7.5,0c0.3,0,0.4,0.1,0.4,0.4
				C77.4,100.4,77.4,101.7,77.4,103z"/>
			<path d="M168.7,100.3c0-3.1,0-6.2,0-9.4c0-0.7,0-0.7,0.7-0.7c4.3,0,8.8,0,13.1,0c0.5,0,0.7,0.1,0.7,0.6c0,0.7,0,1.3,0,2
				c0,0.5-0.1,0.7-0.6,0.6c-1.2,0-2.4,0-3.6,0c-2.1,0-4.2,0-6.2,0c-0.5,0-0.6,0.1-0.6,0.6c0,1.3,0,2.6,0,4c0,0.4,0.1,0.6,0.6,0.6
				c3.2,0,6.5,0,9.7,0c0.8,0,0.7,0,0.7,0.7c0,0.7,0,1.3,0,2c0,0.4-0.1,0.5-0.5,0.5c-3.2,0-6.5,0-9.7,0c-0.7,0-0.7,0-0.7,0.7
				c0,1.4,0,2.8,0,4.2c0,0.4,0.1,0.5,0.5,0.5c3.3,0,6.6,0,9.9,0c0.4,0,0.5,0.1,0.5,0.5c0,0.8,0,1.5,0,2.3c0,0.3-0.1,0.4-0.4,0.4
				c-4.5,0-9.1,0-13.6,0c-0.4,0-0.4-0.2-0.4-0.5C168.7,106.6,168.7,103.4,168.7,100.3z"/>
			<path d="M122.9,89.7c1.5,3,3,6.1,4.5,9.1c1.8,3.7,3.7,7.4,5.5,11.1c0.2,0.3,0.1,0.5-0.3,0.5c-6.5,0-13,0-19.7,0
				c-0.4,0-0.4-0.1-0.3-0.4c1.2-2.5,2.5-5,3.7-7.5c1-2,2-4,3-6c1-2.1,2.1-4.3,3.1-6.4C122.7,89.9,122.8,89.8,122.9,89.7z M128,107
				c-1.7-3.4-3.4-6.9-5.1-10.4c-0.4,0.6-0.6,1-0.8,1.5c-1.3,2.8-2.7,5.6-4.1,8.4c-0.3,0.6-0.3,0.6,0.3,0.6c3,0,6.1,0,9.2,0
				C127.6,107.1,127.7,107.1,128,107z"/>
			<path d="M54.1,100.3c0,3.1,0,6.2,0,9.4c0,0.4-0.1,0.6-0.6,0.6c-0.9,0-1.7,0-2.5,0c-0.4,0-0.5-0.1-0.5-0.5c0-6.3,0-12.6,0-18.9
				c0-0.4,0.1-0.6,0.6-0.6c0.9,0,1.6,0,2.5,0c0.5,0,0.6,0.2,0.6,0.6C54.1,94,54.1,97.1,54.1,100.3z"/>
			<path d="M137,100.3c0-3.1,0-6.1,0-9.3c0-0.7,0-0.7,0.7-0.7c0.8,0,1.6,0,2.4,0c0.4,0,0.5,0.1,0.5,0.5c0,0.8,0,1.6,0,2.4
				c0,5.5,0,11,0,16.4c0,0.5-0.1,0.6-0.6,0.6c-0.8,0-1.5,0-2.3,0c-0.5,0-0.7-0.1-0.7-0.6C137,106.5,137,103.4,137,100.3z"/>
			<path d="M83.5,100.3c0-3.1,0-6.2,0-9.5c0-0.5,0.1-0.6,0.6-0.6c0.9,0,1.7,0,2.5,0c0.3,0,0.4,0.1,0.4,0.4c0,0.9,0,1.8,0,2.6
				c0,5.4,0,10.9,0,16.3c0,0.4-0.1,0.5-0.5,0.5c-0.9,0-1.6,0-2.5,0c-0.5,0-0.5-0.1-0.5-0.6C83.5,106.6,83.5,103.4,83.5,100.3z"/>
		</g>
	</g>
	<circle class="st0" cx="188" cy="108.2" r="2"/>
	<path d="M187.8,107.2c0.1,0,0.3,0,0.4,0c0.2,0,0.3,0.1,0.5,0.2c0.2,0.2,0.2,0.4,0.2,0.6s-0.2,0.4-0.4,0.5l0,0
		c0.1,0.2,0.3,0.4,0.4,0.6c0,0,0,0.1,0.1,0.1l0,0c-0.1,0-0.2,0-0.3,0l0,0c-0.1-0.2-0.3-0.4-0.4-0.6c0,0,0,0-0.1,0s-0.2,0-0.3,0l0,0
		c0,0.2,0,0.4,0,0.6c0,0,0,0.1-0.1,0.1s-0.2,0-0.2,0l0,0c0-0.6,0-1.2,0-1.8l0,0C187.5,107.2,187.7,107.2,187.8,107.2z M187.7,107.9
		c0,0.1,0,0.2,0,0.3c0,0,0,0.1,0.1,0.1s0.3,0,0.4,0h0.1c0.2-0.1,0.3-0.3,0.2-0.4s-0.2-0.2-0.3-0.2c-0.2,0-0.3,0-0.5,0l0,0
		C187.7,107.7,187.7,107.8,187.7,107.9z"/>
</g>
</svg>
