<?xml version="1.0" encoding="utf-8"?>
<!-- Generator: Adobe Illustrator 26.2.1, SVG Export Plug-In . SVG Version: 6.00 Build 0)  -->
<svg version="1.1" id="Layer_1" xmlns="http://www.w3.org/2000/svg" xmlns:xlink="http://www.w3.org/1999/xlink" x="0px" y="0px"
	 viewBox="0 0 200 200" style="enable-background:new 0 0 200 200;" xml:space="preserve">
<g>
	<path d="M99.9,190C50.3,190,10,149.7,10,100c0-49.6,40.5-90.1,90.2-90c49.5,0.1,89.8,40.6,89.8,90.1
		C189.9,149.8,149.6,190,99.9,190z M100.2,14.3c-47.2-0.1-85.7,38.2-85.8,85.5c-0.2,47.4,38.2,85.7,85.9,85.8
		c46.7,0.2,85.2-38.3,85.4-85.1C185.8,53.1,147.3,14.4,100.2,14.3z"/>
	<path d="M74.8,175.7c2.8,0.6,5.6,1.3,8.4,1.8c5.9,1,11.9,1.5,17.8,0.2c3.4-0.8,6.6-2.1,8.8-4.9c3.2-4,1.1-9.8-3.8-10.4
		c-1.3-0.2-2.8,0.3-4,0.8c-0.9,0.4-1.8,1-2.5,1.7c-5.5,5.2-12.3,6.6-19.5,5.7c-16.8-2-31.4-8.2-42.8-21.2
		c-9.2-10.5-14.3-22.8-16.4-36.5c-1.9-12.3-1-24.4,2.3-36.4c0.2-0.7,0.6-1.2,0.7-1.8c0.2,0.1,0.3,0.1,0.5,0.2
		c-0.5,2.2-1,4.3-1.4,6.6c-1.4,7-2.2,14.1-0.2,21c0.8,2.8,2.2,5.4,4.5,7.2c2.8,2.2,6.2,2.2,8.5,0.1c2.2-2,2.6-5.2,0.8-8.2
		c-0.8-1.4-1.9-2.8-2.9-4.1c-2.5-3.4-4.1-7.2-4.1-11.4c0.1-24.3,9.8-43.5,30.9-56c19.6-11.5,40.8-13.3,62.6-7.1
		c0.8,0.2,1.4,0.7,2.1,1.2c-3.7-0.7-7.4-1.7-11.1-2.2c-5.5-0.8-11.2-1-16.7,0.6c-2.7,0.7-5.2,2.1-7,4.2c-2.2,2.5-2.4,6.2-0.7,8.5
		c1.9,2.4,5.6,2.9,8.6,1.2c1-0.6,2-1.2,2.8-2.1c5-4.3,11-5.6,17.3-5.1c31.4,2.8,51.2,21.7,58.6,48.8c4.1,15,4.1,30.1-0.3,45.2
		c-0.2,0.7-0.5,1.4-0.8,2.1c-0.2,0-0.4-0.1-0.6-0.1c0.1-0.7,0.3-1.2,0.4-1.9c1.8-7.3,3.3-14.6,2-22.1c-0.5-2.9-1.6-5.7-2.8-8.3
		c-1-2.2-3-3.7-5.4-4.3c-4.4-1-8.3,2.6-7.3,7c0.4,1.6,1.1,3.3,2.2,4.4c5.3,6,6.7,13.1,5.7,20.7c-2.1,16.7-8.4,31.2-21.5,42.4
		c-10.2,8.8-22.2,13.8-35.5,15.8c-12.1,1.9-24,1.3-35.8-1.9c-1-0.3-2-0.8-3-1.1C74.7,176,74.8,175.8,74.8,175.7z M65.3,81.1
		c-1.7,0-3-0.9-3.8-2.2c-0.8-1.4-1.3-3-1.3-4.5c0-2.4,0.6-5,0.9-7.4c0.4-2.3-0.9-3.6-3.1-2.6c-0.9,0.4-1.9,1-2.4,1.9
		c-4.4,7-2.5,19.4,8.2,21.6c1.4,0.3,2.2,0.8,2.7,2.2c2.8,6.6,8.4,8.9,15.2,6.4c1.4-0.6,2.8-1.2,4.2-1.9c0.3,3.3-0.1,4-2.8,5.4
		c-7.4,3.8-14.9,7.6-21.5,12.9c-5.4,4.4-9.6,9.8-11,16.8c-1.9,9.3,4.4,17.2,13.9,17.2c5.7,0.1,10.6-2,14.7-5.8
		c5.2-4.7,8.6-10.5,10.2-17.2c1.4-6,2.1-12.2,2.7-18.3c0.3-2.3,0.8-3.7,2.9-4.9c6.3-3.8,12.4-7.8,18.6-11.7c0.6-0.4,1-0.7,1.7-1.1
		c0.7,0.8,1.2,1.5,1.7,2.2c0.2,0.3,0.3,0.6,0.5,0.8c-0.9,0.6-1.8,1.1-2.6,1.7c-11.7,7.7-16.3,18.6-14.2,32.3
		c2.4,15.5,17,25.1,31.7,21.2c15.3-4.1,22.4-22.1,13.9-34.8c-5-7.4-15.3-9.2-22.5-3.8c-5.6,4.2-7.1,12.1-3.5,17.7
		c1.6,2.3,3.7,4.1,6.7,3.8c1.1-0.1,2.6-0.8,3.1-1.8s-0.1-2.4-0.6-3.6c-0.5-1.1-1.5-2-2.1-3c-2.1-3.6-0.6-7.4,3.4-8.7
		c3.4-1.1,7,0.5,9,3.8c4.4,7.6,0.7,18.7-7.4,22c-6.8,2.9-14.5,0.6-18.8-5.8c-4.4-6.4-5-13.5-3.3-20.9c1.2-5.3,4-9.7,8.3-13.1
		c3.8-3.1,8-3.5,12.6-2.9c1.8,0.2,3.8-0.3,5.5-0.7c1.5-0.4,2.8-1.6,2.6-3.2c-0.2-1.1-1.4-2.2-2.2-3c-0.4-0.4-1-0.6-1.6-0.6
		c-2.9,0-5.7-0.2-8.6,0.2c-1.5,0.2-2.5-0.1-3.4-1.2c-0.7-0.9-1.2-2.1-1.6-2.7c3.9-3.7,7.6-6.8,11.1-10.4c3.1-3.1,5.2-6.8,6-11.2
		c1.2-6.8-3.3-11.6-10.1-10.6c-4.3,0.7-7.6,3.1-10.1,6.5c-4.7,6.2-6.7,13.3-5.9,21c0.2,2-0.2,3.3-2,4.3c-5.2,3.3-10.4,6.7-15.7,9.9
		c-0.6,0.4-1.2,0.6-1.9,0.9c-0.5-4.1,0.3-6.6,2.5-9.5c1.4-1.8,2.8-3.7,3.9-5.7c0.6-1,0.9-2.2,1-3.5c0.3-2.9-1.8-4.4-4.5-3.2
		c-1.5,0.7-3,1.7-3.8,3c-1.5,2.2-2.6,4.6-3.6,7c-1.5,4.1-6.4,8.2-10.8,8.4c-2.4,0.2-4-1.2-4.4-3.8c8.3-3.9,14.5-10,18.6-18.4
		c1.6-3.4,2.6-6.8,2.3-10.6c-0.4-3.8-2.7-6.2-6.4-6.7c-5.7-0.8-9.9,2-13.5,5.9c-3.9,4.4-6.6,9.7-8,15.5
		C66.2,75.7,65.8,78.3,65.3,81.1z"/>
	<path d="M84.7,106.8c-0.7,3.4-1,6.5-1.8,9.7c-1.2,5.2-2.8,10.1-5.7,14.6c-2.4,3.8-5.5,6.8-10.1,7.8c-5.7,1.4-9.4-2.1-8.4-7.9
		c0.7-3.6,2.4-6.7,4.8-9.3c5.6-6.4,12.6-10.9,20.2-14.6C83.9,106.9,84.2,106.9,84.7,106.8z"/>
	<path d="M73,79.9c1.1-7.8,3.8-14.7,9.3-20.4c0.5-0.5,0.9-0.8,1.5-1.1c2.1-1.2,4.1,0,4.1,2.4c0,0.8-0.1,1.7-0.5,2.4
		c-2.6,6.7-7.1,12-12.8,16.2c-0.3,0.2-0.6,0.3-0.8,0.5C73.7,79.9,73.5,79.9,73,79.9z"/>
	<path d="M120.2,76.5c0.2-6.6,2.1-11.8,6-16.4c0.3-0.4,0.7-0.7,0.9-0.9c1.2-0.9,2.6-1.6,4-0.6c1.4,1,1,2.5,0.5,3.8
		C129.2,68,125.1,72.3,120.2,76.5z"/>
</g>
</svg>
