<?xml version="1.0" encoding="utf-8"?>
<!-- Generator: Adobe Illustrator 26.2.1, SVG Export Plug-In . SVG Version: 6.00 Build 0)  -->
<svg version="1.1" id="Layer_1" xmlns="http://www.w3.org/2000/svg" xmlns:xlink="http://www.w3.org/1999/xlink" x="0px" y="0px"
	 viewBox="0 0 200 200" style="enable-background:new 0 0 200 200;" xml:space="preserve">
<style type="text/css">
	.st0{fill:none;}
</style>
<g>
	<path class="st0" d="M10.1,97.2c0,3.3,0,6.4,0,9.5c0,1.9,0.7,2.5,2.5,2.5c7.6,0,15.1,0,22.7,0c1.9,0,2.5-0.7,2.5-2.5
		c0-4.9,0-9.8,0-14.7c0-0.4,0-0.7,0-1.2c-1.7,1-2.8,2.3-3.8,3.8c-1.4,2-2.9,3.8-5,5.1c-1.3,0.7-2.6,1.4-4.2,1.4c-2.3,0-4.6,0-6.9,0
		c-0.2,0-0.4-0.1-0.7-0.2c3.6-0.6,5.8-1.9,8-4.6c1-1.3,2.1-2.7,3.2-4c1.6-1.7,3.5-2.8,5.9-2.9c1.2,0,2.4,0,3.7,0c0-2,0-3.8,0-5.6
		c0-1.5-0.7-2.2-2.2-2.2c-7.8,0-15.4,0-23.2,0c-1.6,0-2.2,0.7-2.2,2.3c0,3.4,0,6.8,0,10.2c0,0.3,0,0.6,0,0.8c1.9,0,3.7,0,5.3,0
		c0.3,0,0.7,0.1,0.8,0.3c1.1,1.2,2.2,2.5,3.4,3.8c-1.4,0.7-2.9,1.1-4.6,1.1C13,100.2,11.8,98.5,10.1,97.2z M98.2,81.5
		c0,9.4,0,18.5,0,27.7c1.3,0,2.4,0,3.7,0c0-7.1,0-14.1,0-21.3c0.4,0.4,0.6,0.7,0.8,0.9c5.7,6.6,11.5,13.3,17.2,19.9
		c0.2,0.2,0.4,0.5,0.7,0.5c1,0.1,2.2,0,3.2,0c0-9.4,0-18.5,0-27.7c-1.2,0-2.4,0-3.7,0c0,7.1,0,14.2,0,21.5c-1.3-1.5-2.4-2.8-3.7-4.1
		c-4.9-5.6-9.7-11.2-14.6-16.8c-0.2-0.2-0.5-0.5-0.7-0.5C100,81.4,99.2,81.5,98.2,81.5z M72.2,87.8c0.3,0.4,0.5,0.6,0.7,0.7
		c5.8,6.7,11.7,13.5,17.5,20.2c0.2,0.2,0.4,0.5,0.6,0.5c1.1,0.1,2.2,0,3.3,0c0-9.4,0-18.5,0-27.7c-1.2,0-2.4,0-3.7,0
		c0,7.1,0,14.2,0,21.3c-0.2-0.1-0.2-0.1-0.3-0.2c-6-6.7-12-13.7-18.1-20.5c-0.2-0.3-0.6-0.6-0.8-0.6c-0.9-0.1-1.9,0-2.9,0
		c0,9.3,0,18.4,0,27.7c1.2,0,2.4,0,3.7,0C72.2,102.1,72.2,95.1,72.2,87.8z M183,96.3c0.4-0.2,0.6-0.3,0.8-0.4
		c3.2-1.4,4.7-3.9,4.4-7.6c-0.3-3.3-2.3-5.7-5.5-6.6c-1-0.3-2.1-0.3-3.1-0.4c-2.5,0-5,0-7.5,0c0,9.3,0,18.5,0,27.7c1.4,0,2.6,0,4,0
		c0-4,0-8,0-12c0.6,0,1.1,0.1,1.6,0c0.8-0.1,1.3,0.2,1.7,0.9c1.9,3.6,3.8,7,5.8,10.6c0.1,0.3,0.5,0.6,0.7,0.6c1.3,0.1,2.7,0,4.1,0
		C187.7,104.9,185.4,100.7,183,96.3z M162.3,109.2c-0.2-0.5-0.3-0.7-0.5-1c-3.7-8.4-7.5-16.8-11.2-25.3c-0.6-1.3-1.2-1.9-2.6-1.7
		c-0.7,0.1-1.1,0.3-1.4,0.9c-3.3,7.7-6.6,15.4-9.9,23c-0.6,1.3-1.1,2.6-1.7,4c1.2,0,2.3,0,3.4,0c0.5,0,0.7-0.2,0.9-0.7
		c0.9-2.2,2-4.5,2.9-6.7c0.3-0.6,0.6-0.8,1.2-0.8c3.5,0,6.8,0,10.3,0c0.7,0,0.9,0.2,1.1,0.7c1,2.2,2.1,4.5,3.1,6.7
		c0.1,0.3,0.5,0.7,0.7,0.7C159.9,109.3,161.1,109.2,162.3,109.2z M53.1,105.8c0-3,0-5.8,0-8.7c3.7,0,7.4,0,11.1,0c0-1.2,0-2.3,0-3.7
		c-3.7,0-7.4,0-11.1,0c0-2.8,0-5.6,0-8.4c3.9,0,7.8,0,11.7,0c0-1.2,0-2.3,0-3.5c-5.2,0-10.4,0-15.6,0c0,9.3,0,18.4,0,27.6
		c5.3,0,10.7,0,16,0c0-1.1,0-2.2,0-3.5C61.1,105.8,57.1,105.8,53.1,105.8z M35.6,118.6c0.1,0,0.2,0.1,0.4,0.1c0.6,0,1.1,0,1.7,0
		c3.8-0.2,6.2-1.9,7.1-5.4c0.3-1.1,0.5-2.3,0.5-3.6c0-9.1,0-18.2,0-27.3c0-0.3,0-0.6,0-0.9c-1.4,0-2.6,0-4,0c0,0.4,0,0.7,0,1.1
		c0,8.7,0,17.3,0,26c0,0.9-0.1,2-0.2,2.9c-0.2,2-1.3,3-3.3,3.3c-0.7,0.1-1.4,0.1-2.2,0.1C35.6,116.2,35.6,117.4,35.6,118.6z
		 M164.5,81.5c0,9.3,0,18.4,0,27.7c1.3,0,2.5,0,3.8,0c0-9.3,0-18.4,0-27.7C167.1,81.5,165.9,81.5,164.5,81.5z M136.6,97.6
		c-3.1,0-6.2,0-9.2,0c0,1.1,0,2.2,0,3.5c1.5,0,2.9,0,4.3,0c1.1,0,2.5,0.4,3.4-0.2c0.8-0.6,1-2.1,1.5-3.1
		C136.6,97.8,136.6,97.7,136.6,97.6z"/>
	<path d="M10.1,97.2c1.6,1.4,2.9,3,5.1,3.1c1.7,0.1,3.2-0.4,4.6-1.1c-1.1-1.3-2.2-2.6-3.4-3.8c-0.2-0.2-0.6-0.3-0.8-0.3
		c-1.8,0-3.6,0-5.3,0c0-0.4,0-0.7,0-0.8c0-3.4,0-6.8,0-10.2c0-1.6,0.7-2.3,2.2-2.3c7.8,0,15.4,0,23.2,0c1.5,0,2.2,0.7,2.2,2.2
		c0,1.8,0,3.6,0,5.6c-1.3,0-2.5,0-3.7,0c-2.4,0.1-4.3,1.1-5.9,2.9c-1.2,1.2-2.2,2.6-3.3,4c-2.1,2.7-4.4,4-8,4.6
		c0.4,0.1,0.6,0.2,0.7,0.2c2.3,0,4.6,0,6.9,0c1.6,0,2.9-0.6,4.2-1.4c2.1-1.3,3.7-3.1,5-5.1c1-1.5,2.2-2.8,3.8-3.8c0,0.5,0,0.8,0,1.2
		c0,4.9,0,9.8,0,14.7c0,2-0.6,2.5-2.5,2.5c-7.6,0-15.1,0-22.7,0c-1.9,0-2.5-0.7-2.5-2.5C10.1,103.5,10.1,100.4,10.1,97.2z"/>
	<path d="M98.2,81.5c0.9,0,1.9,0,2.8,0c0.3,0,0.6,0.3,0.7,0.5c4.9,5.6,9.7,11.2,14.6,16.8c1.1,1.3,2.3,2.6,3.7,4.1
		c0-7.3,0-14.3,0-21.5c1.3,0,2.5,0,3.7,0c0,9.2,0,18.3,0,27.7c-1,0-2.2,0-3.2,0c-0.2,0-0.5-0.3-0.7-0.5
		c-5.7-6.6-11.5-13.3-17.2-19.9c-0.2-0.3-0.5-0.6-0.8-0.9c0,7.2,0,14.2,0,21.3c-1.3,0-2.5,0-3.7,0C98.2,100.1,98.2,90.8,98.2,81.5z"
		/>
	<path d="M72.2,87.8c0,7.3,0,14.3,0,21.3c-1.2,0-2.4,0-3.7,0c0-9.2,0-18.4,0-27.7c0.9,0,2-0.1,2.9,0c0.3,0,0.6,0.4,0.8,0.6
		c6.1,6.9,12.1,13.8,18.2,20.7c0,0,0.1,0.1,0.3,0.2c0-7.1,0-14.2,0-21.3c1.3,0,2.4,0,3.7,0c0,9.2,0,18.3,0,27.7c-1,0-2.2,0-3.3,0
		c-0.2,0-0.5-0.3-0.6-0.5C84.6,102,78.8,95.3,73,88.6C72.7,88.4,72.6,88.2,72.2,87.8z"/>
	<path d="M183,96.3c2.3,4.3,4.7,8.5,7,12.9c-1.5,0-2.8,0-4.1,0c-0.3,0-0.6-0.3-0.7-0.6c-2-3.5-3.9-7-5.8-10.6
		c-0.4-0.7-0.8-1-1.7-0.9c-0.5,0.1-1,0-1.6,0c0,4,0,8,0,12c-1.4,0-2.7,0-4,0c0-9.2,0-18.3,0-27.7c2.5,0,5,0,7.5,0
		c1,0,2.2,0.1,3.1,0.4c3.2,0.7,5.3,3.3,5.5,6.6c0.3,3.7-1.2,6.2-4.4,7.6C183.6,96,183.4,96.2,183,96.3z M176.3,93.4
		c2.5,0.3,4.2,0.1,5.5-0.7c1.5-0.7,2.3-2.3,2.2-4c-0.2-1.9-1-3.1-2.9-3.5c-1.6-0.3-3.2-0.3-4.9-0.5
		C176.3,87.9,176.3,90.6,176.3,93.4z"/>
	<path d="M162.3,109.2c-1.2,0-2.4,0-3.6,0c-0.3,0-0.6-0.4-0.7-0.7c-1-2.2-2.2-4.5-3.1-6.7c-0.3-0.6-0.6-0.7-1.1-0.7
		c-3.5,0-6.8,0-10.3,0c-0.7,0-0.9,0.3-1.2,0.8c-0.9,2.2-2,4.5-2.9,6.7c-0.2,0.5-0.4,0.7-0.9,0.7c-1.1,0-2.2,0-3.4,0
		c0.6-1.4,1.1-2.7,1.7-4c3.3-7.7,6.6-15.4,9.9-23c0.3-0.7,0.7-0.8,1.4-0.9c1.4-0.1,2.1,0.4,2.6,1.7c3.7,8.4,7.5,16.8,11.2,25.3
		C162,108.5,162.1,108.9,162.3,109.2z M148.4,87.8c-1.4,3.3-2.6,6.5-3.9,9.5c2.8,0,5.5,0,8.3,0C151.2,94.2,149.8,91.1,148.4,87.8z"
		/>
	<path d="M53.1,105.8c4,0,8,0,12.1,0c0,1.2,0,2.2,0,3.5c-5.3,0-10.6,0-16,0c0-9.2,0-18.4,0-27.6c5.2,0,10.4,0,15.6,0
		c0,1.1,0,2.2,0,3.5c-3.9,0-7.8,0-11.7,0c0,2.8,0,5.6,0,8.4c3.7,0,7.4,0,11.1,0c0,1.2,0,2.3,0,3.7c-3.7,0-7.4,0-11.1,0
		C53.1,100,53.1,102.8,53.1,105.8z"/>
	<path d="M35.6,118.6c0-1.2,0-2.4,0-3.7c0.8,0,1.5-0.1,2.2-0.1c2-0.2,3-1.3,3.3-3.3c0.1-0.9,0.2-1.9,0.2-2.9c0-8.7,0-17.3,0-26
		c0-0.4,0-0.7,0-1.1c1.3,0,2.6,0,4,0c0,0.4,0,0.7,0,0.9c0,9.1,0,18.2,0,27.3c0,1.2-0.2,2.4-0.5,3.6c-0.8,3.6-3.3,5.2-7.1,5.4
		c-0.6,0-1.1,0-1.7,0C35.8,118.8,35.7,118.7,35.6,118.6z"/>
	<path d="M164.5,81.5c1.3,0,2.5,0,3.8,0c0,9.3,0,18.4,0,27.7c-1.3,0-2.5,0-3.8,0C164.5,100,164.5,90.8,164.5,81.5z"/>
	<path d="M136.6,97.6c0,0.1,0,0.1,0,0.2c-0.5,1-0.7,2.5-1.5,3.1c-0.7,0.6-2.2,0.2-3.4,0.2c-1.4,0-2.9,0-4.3,0c0-1.2,0-2.2,0-3.5
		C130.5,97.6,133.6,97.6,136.6,97.6z"/>
</g>
</svg>
