<?xml version="1.0" encoding="utf-8"?>
<!-- Generator: Adobe Illustrator 26.2.1, SVG Export Plug-In . SVG Version: 6.00 Build 0)  -->
<svg version="1.1" id="Layer_1" xmlns="http://www.w3.org/2000/svg" xmlns:xlink="http://www.w3.org/1999/xlink" x="0px" y="0px"
	 viewBox="0 0 200 200" style="enable-background:new 0 0 200 200;" xml:space="preserve">
<g>
	<path d="M10,81.4h5v36.5h-5V81.4z M40.1,117.9h-7L15.8,98.1l17.3-16.7H40l-17.5,17L40.1,117.9z"/>
	<path d="M49.5,114c0.7,0,1.4,0,2.1-0.1c0.7-0.1,1.2-0.3,1.8-0.6c0.6-0.3,1.1-0.7,1.7-1.1c0.6-0.4,1-1,1.5-1.7l3.2,3.5
		c-1.2,1.5-2.8,2.6-4.6,3.5c-1.8,0.8-3.7,1.1-5.8,1.1c-1.8,0-3.3-0.3-4.8-1c-1.5-0.7-2.8-1.5-3.9-2.6s-1.9-2.5-2.6-4
		c-0.7-1.5-1-3.2-1-5c0-1.7,0.3-3.3,0.8-4.7c0.6-1.5,1.2-2.8,2.3-3.9c1-1.1,2.2-2.1,3.7-2.6c1.5-0.7,3.2-1,5.1-1
		c1.7,0,3.2,0.3,4.7,0.8c1.4,0.6,2.6,1.4,3.7,2.3s1.9,2.2,2.5,3.7c0.6,1.5,0.8,3,0.8,4.8c0,0.4,0,0.8,0,1.2c0,0.4-0.1,0.8-0.1,1.2
		H41.8c0.1,0.7,0.4,1.2,0.7,2.1c0.3,0.7,0.8,1.4,1.4,1.9c0.6,0.7,1.4,1.1,2.3,1.5C47,113.7,48.1,114,49.5,114 M49,97.4
		c-1.1,0-2.1,0.1-2.9,0.6c-0.8,0.3-1.5,0.8-2.1,1.4c-0.6,0.6-1.1,1.2-1.4,2.1c-0.4,0.8-0.7,1.7-0.8,2.6h13.8
		c-0.1-0.8-0.3-1.7-0.7-2.5c-0.3-0.8-0.8-1.5-1.4-2.1C53,99,52.3,98.4,51.4,98C50.8,97.6,49.9,97.4,49,97.4"/>
	<path d="M67.1,97.3c0.7-1,1.2-1.7,2.1-2.1c0.7-0.6,1.5-0.8,2.2-1.1c0.7-0.3,1.4-0.4,2.1-0.4s1.1-0.1,1.5-0.1c1.1,0,2.1,0.1,3,0.6
		c1,0.4,1.8,1,2.5,1.5c0.7,0.7,1.2,1.4,1.7,2.3c0.4,0.8,0.6,1.8,0.6,2.8v17h-5v-15.5c0-0.7-0.1-1.2-0.3-1.8c-0.3-0.6-0.6-1-0.8-1.4
		c-0.4-0.4-0.8-0.7-1.4-1c-0.6-0.3-1.1-0.3-1.8-0.3c-0.8,0-1.7,0.1-2.3,0.6c-0.7,0.4-1.4,0.8-1.9,1.5c-0.6,0.7-1,1.4-1.4,2.3
		c-0.3,0.8-0.6,1.8-0.6,2.9v12.7h-5V94.3h4.8V97.3"/>
	<path d="M113.5,93.6c1.1,0,2.1,0.1,3,0.6s1.8,1,2.5,1.5c0.7,0.7,1.2,1.4,1.7,2.2s0.6,1.8,0.6,2.8v17.1h-5v-15.5
		c0-0.7-0.1-1.2-0.3-1.8c-0.3-0.6-0.6-1-1-1.4c-0.4-0.4-0.8-0.7-1.4-1c-0.6-0.3-1.1-0.3-1.8-0.3s-1.4,0.1-2.2,0.4
		c-0.7,0.3-1.4,0.7-1.9,1.2c-0.6,0.6-1,1.1-1.4,1.8c-0.3,0.7-0.6,1.4-0.6,2.2v14.4h-5v-15.6c0-0.7-0.1-1.2-0.3-1.8
		c-0.3-0.6-0.6-1-1-1.4c-0.4-0.4-0.8-0.7-1.4-1c-0.6-0.3-1.1-0.3-1.8-0.3c-0.8,0-1.7,0.1-2.3,0.6c-0.7,0.4-1.4,1-1.9,1.5
		c-0.6,0.7-1,1.4-1.4,2.3c-0.3,0.8-0.6,1.8-0.6,2.8v12.8h-5V94.3H90v3c0.7-1,1.2-1.7,2.1-2.1c0.7-0.6,1.5-0.8,2.2-1.1
		c0.7-0.3,1.4-0.4,2.1-0.4c0.7,0,1.1,0,1.5,0c0.7,0,1.5,0.1,2.2,0.3s1.4,0.4,1.9,0.8c0.6,0.4,1.1,0.8,1.7,1.2
		c0.4,0.6,0.8,1.1,1.1,1.7c0.7-1,1.5-1.8,2.2-2.3c0.8-0.6,1.7-1,2.3-1.2c0.8-0.3,1.5-0.4,2.2-0.4C112.4,93.6,112.9,93.6,113.5,93.6"
		/>
	<path d="M134.9,93.6c1.7,0,3.3,0.3,4.8,0.8c1.5,0.6,2.9,1.4,4,2.5s2.1,2.3,2.8,3.9c0.7,1.5,1,3.2,1,5c0,1.9-0.3,3.6-1,5.1
		c-0.7,1.5-1.5,2.9-2.8,4c-1.1,1.1-2.5,1.9-4,2.6c-1.5,0.6-3,1-4.7,1c-1.9,0-3.6-0.3-5.2-1c-1.5-0.6-2.9-1.5-4.1-2.6
		c-1.1-1.1-2.1-2.5-2.6-4c-0.7-1.5-1-3.2-1-5.1c0-1.8,0.3-3.5,1-5s1.7-2.8,2.8-3.9s2.5-1.9,4-2.6C131.6,93.9,133.2,93.6,134.9,93.6
		 M135,98.1c-1.1,0-2.2,0.1-3.2,0.6c-1,0.4-1.8,1-2.5,1.7c-0.7,0.7-1.2,1.5-1.7,2.5c-0.4,1-0.6,2.1-0.6,3.2s0.1,2.2,0.6,3.2
		c0.4,1,1,1.8,1.7,2.5c0.7,0.7,1.5,1.2,2.5,1.7c1,0.4,1.9,0.6,3,0.6c1,0,1.9-0.1,2.9-0.6c1-0.4,1.7-1,2.3-1.7
		c0.7-0.7,1.2-1.5,1.7-2.5s0.6-2.1,0.6-3.3c0-1.1-0.1-2.1-0.6-3c-0.4-1-1-1.8-1.7-2.5c-0.7-0.7-1.5-1.2-2.3-1.7
		C137.1,98.4,136.1,98.1,135,98.1"/>
	<path d="M162.1,98.3c-0.3-0.1-0.6-0.1-1-0.3c-0.3,0-0.7,0-1,0c-0.8,0-1.7,0.1-2.3,0.6c-0.7,0.4-1.4,0.8-1.9,1.5s-1,1.4-1.2,2.3
		c-0.3,1-0.4,1.9-0.4,3v12.4h-5V94.3h4.8v3c0.6-0.8,1.2-1.7,2.1-2.1c0.7-0.6,1.5-0.8,2.2-1.1c0.7-0.3,1.4-0.4,2.1-0.4
		c0.7,0,1.1-0.1,1.5-0.1c0.6,0,1.1,0,1.7,0.1L162.1,98.3"/>
	<path d="M173.6,114c0.7,0,1.4,0,2.1-0.1c0.7-0.1,1.2-0.3,1.8-0.6c0.6-0.3,1.1-0.7,1.7-1.1c0.6-0.4,1.1-1,1.5-1.7l3.2,3.5
		c-1.2,1.5-2.8,2.6-4.6,3.5c-1.8,0.8-3.7,1.1-5.8,1.1c-1.8,0-3.3-0.3-4.8-1s-2.8-1.5-3.9-2.6s-1.9-2.5-2.6-4c-0.7-1.5-1-3.2-1-5
		c0-1.7,0.3-3.3,0.8-4.7c0.6-1.5,1.2-2.8,2.3-3.9c1-1.1,2.2-2.1,3.7-2.6c1.5-0.7,3.2-1,5.1-1c1.7,0,3.2,0.3,4.7,0.8
		c1.4,0.6,2.6,1.4,3.7,2.3c1.1,1,1.9,2.2,2.5,3.7c0.6,1.5,0.8,3,0.8,4.8c0,0.4,0,0.8,0,1.2c0,0.4-0.1,0.8-0.1,1.2H166
		c0.1,0.7,0.4,1.2,0.7,2.1c0.3,0.7,0.8,1.4,1.4,1.9c0.6,0.7,1.4,1.1,2.3,1.5C171.1,113.7,172.2,114,173.6,114 M173,97.4
		c-1.1,0-2.1,0.1-2.9,0.6c-0.8,0.3-1.5,0.8-2.1,1.4c-0.6,0.6-1.1,1.2-1.4,2.1c-0.4,0.8-0.7,1.7-0.8,2.6h13.8
		c-0.1-0.8-0.3-1.7-0.7-2.5c-0.3-0.8-0.8-1.5-1.4-2.1c-0.6-0.6-1.2-1.1-2.1-1.5C174.9,97.6,174,97.4,173,97.4"/>
	<g>
		<path d="M190,115.5c0,1.2-1,2.2-2.2,2.2s-2.2-1-2.2-2.2s1-2.2,2.2-2.2C189,113.3,190,114.4,190,115.5z M186,115.5
			c0,1,0.8,1.8,1.8,1.8s1.8-0.8,1.8-1.8c0-1-0.8-1.8-1.8-1.8S186,114.6,186,115.5z M186.8,114.4h0.8c0.4,0,0.4,0,0.7,0.1
			c0.3,0.1,0.4,0.3,0.4,0.6c0,0.4-0.3,0.7-0.7,0.7l0,0c0.1,0,0.3,0.3,0.6,0.6l0.3,0.4h-0.4l-0.3-0.4c-0.3-0.6-0.4-0.7-0.7-0.7h-0.3
			v1h-0.4V114.4z M187.7,115.5c0.4,0,0.6-0.1,0.6-0.4c0-0.3-0.1-0.4-0.6-0.4h-0.4v0.7h0.4V115.5z"/>
	</g>
</g>
</svg>
