<?xml version="1.0" encoding="utf-8"?>
<!-- Generator: Adobe Illustrator 26.2.1, SVG Export Plug-In . SVG Version: 6.00 Build 0)  -->
<svg version="1.1" id="Layer_1" xmlns="http://www.w3.org/2000/svg" xmlns:xlink="http://www.w3.org/1999/xlink" x="0px" y="0px"
	 viewBox="0 0 200 200" style="enable-background:new 0 0 200 200;" xml:space="preserve">
<style type="text/css">
	.st0{fill:none;stroke:#000000;stroke-width:0.5;stroke-miterlimit:10;}
	.st1{fill:none;}
</style>
<g>
	<circle class="st0" cx="188" cy="93" r="2"/>
	<path d="M187.8,92c0.1,0,0.3,0,0.5,0c0.2,0,0.4,0.1,0.5,0.2c0.2,0.2,0.2,0.4,0.2,0.5c0,0.3-0.2,0.4-0.4,0.5l0,0
		c0.2,0.2,0.3,0.4,0.4,0.5c0,0,0,0.1,0.1,0.1l0,0c-0.1,0-0.2,0-0.4,0l0,0c-0.1-0.2-0.3-0.4-0.4-0.5c0,0,0,0-0.1,0s-0.2,0-0.3,0
		c0,0-0.1,0-0.1,0.1c0,0.2,0,0.4,0,0.5c0,0,0,0.1-0.1,0.1c-0.1,0-0.2,0-0.3,0l0,0c0-0.6,0-1.2,0-1.8l0,0C187.4,92,187.6,92,187.8,92
		z M187.6,92.6c0,0.1,0,0.2,0,0.3c0,0,0,0.1,0.1,0.1c0.2,0,0.3,0,0.5,0h0.1c0.2-0.1,0.3-0.3,0.2-0.5c-0.1-0.1-0.2-0.2-0.3-0.2
		c-0.2,0-0.4,0-0.5,0l0,0C187.6,92.5,187.6,92.6,187.6,92.6z"/>
	<g>
		<path class="st1" d="M26.5,98.1c1.5-2.5,3-5.1,4.6-7.7c-0.3,0-0.5,0-0.5,0c-1.5,0-3.1,0-4.6,0c-0.4,0-0.5,0.1-0.7,0.4
			c-1.6,2.3-3.2,4.6-4.8,6.9c-0.3,0.5-0.7,0.7-1.2,0.8c-0.7,0.2-0.9,0.1-0.9-0.7c0-2.3,0-4.6,0-6.9c0-0.2,0-0.4,0-0.5
			c-2.8,0-5.6,0-8.3,0c0,6.3,0,12.6,0,18.9c2.7,0,5.5,0,8.2,0c0-0.2,0-0.4,0-0.5c0-1.5,0-3,0-4.6c0-0.7,0.3-0.9,0.9-0.9
			c1,0,1.9,0.6,2.4,1.6c0.5,1.4,1.1,2.6,1.5,4c0.1,0.4,0.3,0.5,0.6,0.5c3,0,5.9,0,8.9,0c0.2,0,0.3,0,0.5,0c-0.1-0.2-0.1-0.3-0.2-0.4
			c-1.2-2.3-2.4-4.6-3.6-6.9c-0.5-0.9-1-1.7-1.5-2.6C27.5,98.8,27,98.6,26.5,98.1z M136.8,90.4c0.2,0.3,0.3,0.4,0.5,0.5
			c0.7,0.5,0.6,1.2,0.3,1.9c-2.3,5.2-4.5,10.4-6.7,15.6c-0.1,0.2-0.1,0.3-0.2,0.5c1.2,0,2.3,0,3.5,0c0.5,0,0.6-0.2,0.8-0.5
			c0.3-0.8,0.7-1.6,1-2.5c0.1-0.3,0.3-0.4,0.5-0.4c2.2,0,4.3,0,6.5,0c0.3,0,0.5,0.1,0.5,0.4c0.3,0.8,0.6,1.6,1,2.5
			c0.1,0.4,0.3,0.5,0.7,0.5c3.1,0,6.1,0,9.2,0c0.2,0,0.3,0,0.5,0c0-0.2-0.1-0.3-0.1-0.4c-2.5-5.9-4.9-11.9-7.4-17.9
			c-0.1-0.3-0.3-0.4-0.5-0.4c-3.1,0-6.2,0-9.3,0C137.2,90.2,137,90.3,136.8,90.4z M176.4,97.4c-0.1,0-0.2,0-0.2,0
			c-0.2-0.1-0.4-0.1-0.5-0.2c-1.8-0.5-3.7-0.9-5.7-0.6c-4.2,0.7-6.3,3.4-5.7,7.5c0.4,2.6,2.1,4,4.6,4.6c1.9,0.5,3.7,0.2,5.7-0.3
			c0.6-0.2,1.3-0.4,1.9-0.5c0,0.3,0.1,0.5,0.1,0.8c2.5,0,4.8,0,7.2,0c0-5.8,0-11.6,0-17.3c-2.5,0-4.8,0-7.3,0
			C176.4,93.4,176.4,95.4,176.4,97.4z M72.8,92.1c0,5.7,0,11.4,0,17c2.6,0,5,0,7.6,0c0-1.8,0-3.6,0-5.4c0-1.7,0.5-2.3,2.3-2.1
			c0.7,0.1,1.2,0.5,1.4,1.2c0.1,0.3,0.1,0.5,0.1,0.8c0,1.6,0,3.2,0,4.8c0,0.2,0,0.4,0,0.5c2.4,0,4.7,0,7,0c0-0.1,0-0.2,0-0.3
			c0-2.6,0-5.3,0-7.9c0-0.1,0-0.3-0.1-0.4c-0.8-1.5-2-2.8-3.9-3.2c-2.1-0.4-4.1,0-6.1,0.5c-0.5,0.2-0.6,0.1-0.6-0.5
			c0-1.6,0-3.3,0-4.8c0-0.2,0-0.4,0-0.5C77.9,92.1,75.4,92.1,72.8,92.1z M111.8,97.6c0,3.8,0,7.6,0,11.3c2.6,0,5,0,7.6,0
			c0-0.2,0-0.4,0-0.5c0-1.9,0-3.8,0-5.7c0-0.8,0.3-1.2,1.1-1.5c0.6-0.2,1.4-0.1,1.7,0.5c0.2,0.4,0.4,0.8,0.4,1.2c0,1.8,0,3.6,0,5.5
			c0,0.2,0,0.4,0,0.5c2.4,0,4.7,0,7.1,0c0-2.6,0.1-5.3,0-7.9c0-1.2-0.5-2.4-1.5-3c-1.5-0.9-3.1-1.2-4.8-0.9
			c-1.2,0.2-2.3,0.6-3.3,1.2c-0.5,0.2-0.5,0.2-0.5-0.3c0-0.1,0-0.2,0-0.3C116.8,97.6,114.4,97.6,111.8,97.6z M110.3,104.5
			c0-0.7,0-1.3,0-1.9c0-1.9-0.8-3.4-2.4-4.4c-0.7-0.5-1.5-0.9-2.5-1.2c-1.9-0.6-3.9-0.6-5.9-0.5c-1.7,0.2-3.3,0.7-4.6,1.7
			c-1.2,0.9-2,2-2.2,3.5c-0.1,0.8-0.1,1.6-0.1,2.5c0.1,1.5,0.8,2.8,2.2,3.7c1.3,0.7,2.6,1.4,4.1,1.4c2.2,0,4.5,0,6.7-0.1
			c1.5-0.1,2.8-0.5,4.1-1.2c0.2-0.1,0.4-0.3,0.4-0.4c0-0.8,0-1.6,0-2.5c-0.6,0.2-1.1,0.4-1.6,0.5c-1.5,0.5-3.2,0.8-4.8,0.7
			c-0.8,0-1.6-0.2-2.4-0.6c-0.4-0.3-0.7-0.5-0.6-1.2C103.8,104.5,107,104.5,110.3,104.5z M71.4,104.6c-0.3,0.1-0.5,0.2-0.6,0.3
			c-0.7,0.3-1.5,0.5-2.2,0.8c-1.2,0.3-2.4,0.2-3.5-0.5c-0.9-0.5-1.3-1.6-0.8-2.6c0.4-0.8,0.9-1.5,1.8-1.6c0.8-0.2,1.6-0.2,2.4-0.2
			c1,0.1,1.9,0.5,2.8,1c0-1.1,0-2.1,0-3.1c0-0.1-0.2-0.3-0.3-0.4c-1-0.6-2.1-1.1-3.4-1.4c-3.1-0.6-6.1-0.3-8.8,1.4
			c-2.6,1.5-3.2,3.6-2.6,6.3c0.4,1.9,1.6,3.1,3.4,3.8c3.5,1.5,7.1,1.5,10.7,0.2c1.2-0.5,1.1-0.5,1.1-1.6
			C71.4,106.2,71.4,105.5,71.4,104.6z M52.2,101.6c1.1,0,2.2,0,3.3,0c0-1.1,0-2.1,0-3.2c-0.9,0-1.7,0-2.6,0c-0.7,0-0.8-0.1-0.8-0.8
			c0-0.8,0-1.6,0-2.6c-2.4,0-4.7,0-7.1,0c0,0.2,0,0.4,0,0.5c0,0.7,0,1.5,0,2.2c0,0.5-0.1,0.6-0.5,0.5c-0.5,0-1.1,0-1.6,0
			c0,1.1,0,2.2,0,3.3c0.7,0,1.4,0,2.1,0c0,1.5,0,2.9,0,4.4c0,0.4,0.1,0.7,0.2,1c0.6,1.5,1.7,2.3,3.3,2.6c2.2,0.4,4.3-0.1,6.4-1
			c0.3-0.1,0.5-0.3,0.6-0.5c0.1-0.1,0.2-0.2,0.2-0.4c0-0.6,0-1.4,0-2c-0.6,0.2-1.2,0.4-1.8,0.5c-0.5,0.1-0.9-0.1-1.2-0.5
			c-0.2-0.3-0.4-0.6-0.4-1C52.1,103.9,52.2,102.8,52.2,101.6z M163.4,108.9c0-3.7,0-7.5,0-11.2c-2.6,0-5.1,0-7.6,0
			c0,3.7,0,7.5,0,11.2C158.4,108.9,160.8,108.9,163.4,108.9z M41.3,109.1c0-3.7,0-7.5,0-11.2c-2.5,0-5,0-7.5,0c0,3.7,0,7.5,0,11.2
			C36.3,109.1,38.8,109.1,41.3,109.1z M159.7,96.7c0.9,0,1.9-0.3,2.7-0.9c1.3-1,1.3-2.5,0-3.5c-1.5-1.2-4.1-1.2-5.7,0
			c-1.3,1-1.3,2.6,0,3.6C157.6,96.5,158.5,96.7,159.7,96.7z M37.3,97c1.4,0,2.5-0.4,3.2-1c1.1-1,1.1-2.3,0-3.2
			c-1.5-1.4-4.4-1.4-5.9,0c-1.1,1-1.1,2.3,0,3.3C35.4,96.7,36.4,97,37.3,97z"/>
		<path d="M26.5,98.1c0.5,0.5,0.9,0.7,1.3,1.2c0.5,0.8,1.1,1.7,1.5,2.6c1.2,2.3,2.5,4.6,3.6,6.9c0.1,0.1,0.1,0.2,0.2,0.4
			c-0.2,0-0.4,0-0.5,0c-3,0-5.9,0-8.9,0c-0.4,0-0.5-0.1-0.6-0.5c-0.5-1.4-1.1-2.6-1.5-4c-0.4-1-1.4-1.6-2.4-1.6
			c-0.7,0-0.9,0.3-0.9,0.9c0,1.5,0,3,0,4.6c0,0.2,0,0.4,0,0.5c-2.7,0-5.5,0-8.2,0c0-6.3,0-12.5,0-18.9c2.7,0,5.6,0,8.3,0
			c0,0.2,0,0.4,0,0.5c0,2.3,0,4.6,0,6.9c0,0.7,0.2,0.9,0.9,0.7c0.5-0.2,0.9-0.4,1.2-0.8c1.6-2.3,3.3-4.6,4.8-6.9
			c0.2-0.3,0.4-0.5,0.7-0.4c1.5,0,3.1,0,4.6,0c0.2,0,0.3,0,0.5,0C29.6,93,28,95.7,26.5,98.1z"/>
		<path d="M136.8,90.4c0.3-0.1,0.5-0.1,0.7-0.1c3.1,0,6.2,0,9.3,0c0.3,0,0.5,0.1,0.5,0.4c2.5,5.9,4.9,11.9,7.4,17.9
			c0,0.1,0.1,0.2,0.1,0.4c-0.2,0-0.4,0-0.5,0c-3.1,0-6.1,0-9.2,0c-0.4,0-0.5-0.2-0.7-0.5c-0.3-0.8-0.6-1.6-1-2.5
			c-0.1-0.3-0.3-0.4-0.5-0.4c-2.2,0-4.3,0-6.5,0c-0.3,0-0.5,0.1-0.5,0.4c-0.4,0.8-0.7,1.6-1,2.5c-0.2,0.4-0.4,0.5-0.8,0.5
			c-1.1,0-2.3,0-3.5,0c0.1-0.2,0.1-0.4,0.2-0.5c2.3-5.2,4.5-10.4,6.7-15.6c0.4-0.7,0.5-1.4-0.3-1.9C137,90.7,137,90.5,136.8,90.4z
			 M141.3,101.2c-0.5-1.4-1.1-2.6-1.6-3.9c-0.6,1.4-1.2,2.6-1.7,3.9C139.1,101.2,140.1,101.2,141.3,101.2z"/>
		<path d="M176.4,97.4c0-2,0-4,0-6c2.5,0,4.8,0,7.3,0c0,5.8,0,11.6,0,17.3c-2.5,0-4.8,0-7.2,0c0-0.3-0.1-0.5-0.1-0.8
			c-0.6,0.2-1.3,0.4-1.9,0.5c-1.8,0.5-3.7,0.7-5.7,0.3c-2.4-0.6-4.1-2.1-4.6-4.6c-0.6-4.1,1.5-6.7,5.7-7.5c1.9-0.4,3.8,0.1,5.7,0.6
			c0.2,0.1,0.4,0.1,0.5,0.2C176.2,97.4,176.2,97.4,176.4,97.4z M176.5,102.9c-0.1-1.5-0.5-1.9-2-1.9h-0.1c-0.8,0-1.7,0.7-1.8,1.5
			c-0.1,1.2,0.4,1.8,1.5,2c0.7,0.1,1.5,0.1,2.1-0.5C176.4,103.8,176.4,103.3,176.5,102.9z"/>
		<path d="M72.8,92.1c2.6,0,5.1,0,7.7,0c0,0.2,0,0.4,0,0.5c0,1.6,0,3.3,0,4.8c0,0.5,0.1,0.6,0.6,0.5c2-0.5,4-0.9,6.1-0.5
			c1.8,0.4,3,1.5,3.9,3.2c0.1,0.1,0.1,0.3,0.1,0.4c0,2.6,0,5.3,0,7.9c0,0.1,0,0.2,0,0.3c-2.4,0-4.6,0-7,0c0-0.2,0-0.4,0-0.5
			c0-1.6,0-3.2,0-4.8c0-0.3,0-0.5-0.1-0.8c-0.1-0.7-0.5-1.2-1.4-1.2c-1.7-0.1-2.3,0.4-2.3,2.1c0,1.7,0,3.6,0,5.4c-2.6,0-5,0-7.6,0
			C72.8,103.5,72.8,97.8,72.8,92.1z"/>
		<path d="M111.8,97.6c2.6,0,5,0,7.6,0c0,0.1,0,0.2,0,0.3c0,0.5,0.2,0.5,0.5,0.3c1-0.5,2.1-1,3.3-1.2c1.7-0.3,3.4,0,4.8,0.9
			c1.2,0.7,1.5,1.8,1.5,3c0.1,2.6,0,5.3,0,7.9c-2.4,0-4.6,0-7.1,0c0-0.2,0-0.4,0-0.5c0-1.8,0-3.6,0-5.5c0-0.4-0.1-0.8-0.4-1.2
			c-0.4-0.6-1.1-0.7-1.7-0.5c-0.8,0.3-1.1,0.6-1.1,1.5c0,1.9,0,3.8,0,5.7c0,0.2,0,0.4,0,0.5c-2.6,0-5,0-7.6,0
			C111.8,105.1,111.8,101.4,111.8,97.6z"/>
		<path d="M110.3,104.5c-3.2,0-6.5,0-9.7,0c0,0.5,0.3,0.9,0.6,1.2c0.7,0.5,1.5,0.6,2.4,0.6c1.6,0.1,3.3-0.3,4.8-0.7
			c0.5-0.2,1.1-0.4,1.6-0.5c0,0.8,0,1.6,0,2.5c0,0.1-0.2,0.3-0.4,0.4c-1.3,0.7-2.6,1.2-4.1,1.2c-2.2,0.1-4.5,0.1-6.7,0.1
			c-1.5,0-2.8-0.6-4.1-1.4c-1.4-0.8-2.1-2.1-2.2-3.7c-0.1-0.8,0-1.6,0.1-2.5c0.2-1.5,1-2.6,2.2-3.5c1.4-1,2.9-1.5,4.6-1.7
			c2-0.2,4-0.2,5.9,0.5c0.8,0.3,1.6,0.7,2.5,1.2c1.5,1,2.4,2.6,2.4,4.4C110.3,103.2,110.3,103.8,110.3,104.5z M103,101.6
			c0-1-0.5-1.5-1.4-1.5c-0.8,0-1.3,0.6-1.3,1.5C101.2,101.6,102.1,101.6,103,101.6z"/>
		<path d="M71.4,104.6c0,0.8,0,1.6,0,2.5c0,1.2,0,1.2-1.1,1.6c-3.6,1.4-7.1,1.4-10.7-0.2c-1.7-0.7-3-2-3.4-3.8
			c-0.5-2.7,0.1-4.8,2.6-6.3c2.7-1.6,5.7-2,8.8-1.4c1.2,0.3,2.3,0.6,3.4,1.4c0.1,0.1,0.3,0.3,0.3,0.4c0,1,0,2,0,3.1
			c-0.9-0.6-1.8-0.9-2.8-1c-0.8-0.1-1.6,0-2.4,0.2c-0.9,0.2-1.5,0.8-1.8,1.6c-0.4,0.9-0.1,1.9,0.8,2.6c1.1,0.7,2.2,0.8,3.5,0.5
			c0.7-0.2,1.5-0.5,2.2-0.8C71,104.9,71.2,104.8,71.4,104.6z"/>
		<path d="M52.2,101.6c0,1.2,0,2.3,0,3.3c0,0.4,0.2,0.7,0.4,1c0.3,0.4,0.6,0.5,1.2,0.5c0.6-0.1,1.2-0.3,1.8-0.5c0,0.6,0,1.4,0,2
			c0,0.1-0.1,0.3-0.2,0.4c-0.2,0.2-0.4,0.3-0.6,0.5c-2,0.9-4.1,1.4-6.4,1c-1.5-0.3-2.6-1.1-3.3-2.6c-0.1-0.3-0.2-0.6-0.2-1
			c0-1.5,0-2.8,0-4.4c-0.7,0-1.4,0-2.1,0c0-1.1,0-2.2,0-3.3c0.5,0,1.1,0,1.6,0c0.5,0,0.5-0.2,0.5-0.5c0-0.7,0-1.5,0-2.2
			c0-0.2,0-0.4,0-0.5c2.4,0,4.7,0,7.1,0c0,0.8,0,1.7,0,2.6c0,0.7,0.1,0.8,0.8,0.8c0.8,0,1.6,0,2.6,0c0,1,0,2.1,0,3.2
			C54.4,101.6,53.3,101.6,52.2,101.6z"/>
		<path d="M163.4,108.9c-2.6,0-5,0-7.6,0c0-3.7,0-7.4,0-11.2c2.5,0,5,0,7.6,0C163.4,101.4,163.4,105,163.4,108.9z"/>
		<path d="M41.3,109.1c-2.5,0-4.9,0-7.5,0c0-3.7,0-7.4,0-11.2c2.5,0,4.9,0,7.5,0C41.3,101.8,41.3,105.4,41.3,109.1z"/>
		<path d="M159.7,96.7c-1.1,0-2.1-0.3-2.9-0.9c-1.4-1-1.4-2.6,0-3.6c1.5-1.2,4.1-1.2,5.7,0c1.3,1,1.3,2.5,0,3.5
			C161.6,96.4,160.6,96.7,159.7,96.7z"/>
		<path d="M37.3,97c-0.9,0-1.9-0.3-2.7-1c-1.1-1-1.1-2.3,0-3.3c1.5-1.4,4.4-1.4,5.9,0c1.1,1,1.1,2.3,0,3.2
			C39.7,96.7,38.6,97,37.3,97z"/>
	</g>
</g>
</svg>
