<?xml version="1.0" encoding="utf-8"?>
<!-- Generator: Adobe Illustrator 26.2.1, SVG Export Plug-In . SVG Version: 6.00 Build 0)  -->
<svg version="1.1" id="Layer_1" xmlns="http://www.w3.org/2000/svg" xmlns:xlink="http://www.w3.org/1999/xlink" x="0px" y="0px"
	 viewBox="0 0 200 200" style="enable-background:new 0 0 200 200;" xml:space="preserve">
<style type="text/css">
	.st0{fill:none;}
</style>
<g>
	<path class="st0" d="M10,100c0,21.8,17.6,39.5,39.5,39.5c21.8,0,39.5-17.6,39.5-39.5c0.1-21.8-17.6-39.5-39.5-39.5
		C27.7,60.5,10,78.1,10,100z M189.8,81.5C189.8,81.4,189.8,81.4,189.8,81.5c-0.2-0.2-0.2-0.3-0.3-0.4c-2.2-3-5.1-5-8.5-6.2
		c-3-1.1-6.2-1.6-9.5-1.8c-4-0.1-8,0.2-11.8,1.4c-5.2,1.7-9.1,4.7-11.7,9.5c-1.9,3.5-2.8,7.2-3.1,11.2c-0.3,2.5-0.3,5.1-0.1,7.6
		c0.2,3.1,0.7,6.2,1.7,9.1c2.1,5.8,5.8,9.9,11.6,12.2c3.4,1.3,6.9,1.8,10.6,1.9c4.5,0.1,8.9-0.4,13.2-1.6c2.7-0.8,5.3-1.7,7.6-3.2
		c0.3-0.2,0.4-0.3,0.4-0.7c0-8.1,0-16,0-24.1c0-0.2,0-0.3,0-0.5c-6.9,0-13.7,0-20.5,0c0,3.2,0,6.4,0,9.6c3.2,0,6.4,0,9.7,0
		c0,0.2,0,0.4,0,0.5c0,2.7,0,5.3,0,8.1c0,0.4-0.1,0.5-0.5,0.6c-1.7,0.5-3.4,0.8-5.2,1c-2.6,0.3-5.2,0.3-7.8-0.3
		c-2.3-0.5-4.2-1.4-5.8-3.1c-1.5-1.6-2.3-3.5-2.8-5.5c-0.8-2.8-0.8-5.7-0.8-8.6c0.1-2.7,0.4-5.3,1.3-7.9c1.3-3.7,3.9-6,7.7-6.9
		c2.8-0.8,5.6-0.8,8.4-0.4c2.6,0.4,5,1.4,6.9,3.3c0.7,0.6,1.2,1.2,1.8,1.9C184.8,86,187.4,83.8,189.8,81.5z M106.8,73.8
		c0,0.2,0,0.4,0,0.5c0,16.8,0,33.6,0,50.4c0,0.4,0.1,0.5,0.5,0.5c11.8,0,23.6,0,35.5,0c0.2,0,0.3,0,0.5,0c0-3.4,0-6.7,0-10
		c-8.2,0-16.3,0-24.6,0c0-13.8,0-27.6,0-41.4C114.7,73.8,110.7,73.8,106.8,73.8z"/>
	<path d="M10,100c0-21.9,17.7-39.5,39.5-39.5C71.3,60.5,89,78.2,89,100c-0.1,21.9-17.7,39.5-39.5,39.5C27.5,139.5,9.9,121.8,10,100z
		 M51,67.1c-11.9-0.8-25.3,5.6-31.6,19.3c-5.8,12.7-3.2,28.4,8.3,38.6c10,8.8,25.3,11.1,38.1,3.8c12.6-7.1,17.4-20.1,16.7-30.1
		c-7.8,0-15.6,0-23.4,0c0,1,0,2,0,2.9c6.8,0,13.6,0,20.4,0c-0.4,6.4-2.4,12-6.4,17c-5.6,7-12.9,10.9-21.9,11.4
		c-6.5,0.4-12.6-1.2-18-4.9c-8-5.3-12.6-12.7-13.6-22.1c-0.7-6.5,0.6-12.7,4-18.2C29.9,74.7,39.2,69.9,51,70.1C51,69,51,68,51,67.1z
		 M48,82.7c0,11.5,0,23.1,0,34.6c3.7,0,7.2,0,10.8,0c0-1,0-2,0-3c-2.6,0-5.2,0-7.8,0c0-10.5,0-21,0-31.5C50,82.7,49,82.7,48,82.7z
		 M41.5,87.4c0-2.6-2.1-4.6-4.6-4.7c-2.7-0.1-4.9,2.2-4.9,4.7c0,2.6,2.1,4.7,4.7,4.7C39.5,92.1,41.5,90.1,41.5,87.4z"/>
	<path d="M189.8,81.5c-2.4,2.3-4.9,4.5-7.3,6.8c-0.7-0.7-1.2-1.3-1.8-1.9c-2-1.9-4.3-2.9-6.9-3.3c-2.8-0.4-5.6-0.4-8.4,0.4
		c-3.8,0.9-6.4,3.3-7.7,6.9c-0.9,2.5-1.2,5.2-1.3,7.9c-0.1,2.9,0,5.8,0.8,8.6c0.5,2.1,1.3,3.9,2.8,5.5c1.6,1.7,3.6,2.6,5.8,3.1
		c2.5,0.6,5.2,0.6,7.8,0.3c1.8-0.2,3.5-0.5,5.2-1c0.4-0.1,0.5-0.3,0.5-0.6c0-2.7,0-5.3,0-8.1c0-0.2,0-0.3,0-0.5c-3.3,0-6.5,0-9.7,0
		c0-3.2,0-6.4,0-9.6c6.8,0,13.7,0,20.5,0c0,0.1,0,0.3,0,0.5c0,8.1,0,16,0,24.1c0,0.3-0.1,0.5-0.4,0.7c-2.3,1.5-5,2.4-7.6,3.2
		c-4.3,1.1-8.7,1.7-13.2,1.6c-3.7-0.1-7.2-0.6-10.6-1.9c-5.8-2.3-9.6-6.4-11.6-12.2c-1-2.9-1.5-6-1.7-9.1c-0.2-2.5-0.2-5.1,0.1-7.6
		c0.4-3.9,1.2-7.7,3.1-11.2c2.6-4.8,6.6-7.9,11.7-9.5c3.8-1.2,7.8-1.6,11.8-1.4c3.2,0.1,6.4,0.7,9.5,1.8c3.4,1.3,6.4,3.3,8.5,6.2
		C189.6,81.2,189.6,81.3,189.8,81.5C189.7,81.4,189.7,81.4,189.8,81.5z"/>
	<path d="M106.8,73.8c3.9,0,7.9,0,11.8,0c0,13.8,0,27.6,0,41.4c8.3,0,16.4,0,24.6,0c0,3.4,0,6.7,0,10c-0.2,0-0.3,0-0.5,0
		c-11.8,0-23.6,0-35.5,0c-0.4,0-0.6-0.1-0.5-0.5c0-16.8,0-33.6,0-50.4C106.8,74.2,106.8,74,106.8,73.8z"/>
</g>
</svg>
