<?xml version="1.0" encoding="utf-8"?>
<!-- Generator: Adobe Illustrator 26.2.1, SVG Export Plug-In . SVG Version: 6.00 Build 0)  -->
<svg version="1.1" id="Layer_1" xmlns="http://www.w3.org/2000/svg" xmlns:xlink="http://www.w3.org/1999/xlink" x="0px" y="0px"
	 viewBox="0 0 200 200" style="enable-background:new 0 0 200 200;" xml:space="preserve">
<style type="text/css">
	.st0{fill:none;}
</style>
<g>
	<path class="st0" d="M22.1,85.7c-0.3,0-0.5,0-0.6,0c-3.6,0-7.1,0-10.6,0c-0.1,0-0.2,0-0.3,0c-0.1,0.1-0.3,0.3-0.4,0.4
		c0.1,0.1,0.2,0.3,0.4,0.3c0.2,0.1,0.4,0,0.6,0c2.1,0.2,3.3,1.4,3.4,3.4c0,0.3,0,0.6,0,0.9c0,5.6,0,11.2,0,16.8c0,0.5,0,1-0.1,1.5
		c-0.1,0.8-0.3,1.7-0.6,2.4c-0.6,1.3-1.7,2-3,2.2c-0.1,0-0.2,0-0.3,0.1c-0.1,0.1-0.2,0.2-0.2,0.4c0,0.2,0.1,0.3,0.3,0.3
		c0.2,0.1,0.4,0,0.6,0c2.8,0,5.6,0,8.3,0c0.2,0,0.3,0,0.5,0s0.5-0.1,0.5-0.4c0-0.1-0.3-0.3-0.5-0.4c-0.2-0.1-0.5,0-0.7-0.1
		c-1.2-0.3-1.9-1.1-2.4-2.1c-0.6-1.2-0.7-2.5-0.7-3.8c0-5.3,0-10.7,0-16.1c0-0.2,0-0.4,0-0.6c0.1-0.2,0.2-0.4,0.4-0.5
		c0.2,0,0.4,0,0.6,0.2c0.2,0.2,0.3,0.5,0.4,0.6c2.2,4.5,4.5,9,6.7,13.5c1.4,2.8,2.8,5.5,4.1,8.3c0.2,0.4,0.3,0.7,0.7,1
		c0.1-0.3,0.3-0.5,0.4-0.7c1.9-4.2,3.9-8.5,5.8-12.8c1.6-3.5,3.2-7,4.8-10.6c0.1-0.3,0.2-0.6,0.6-0.6c0.5,0.2,0.4,0.6,0.4,1
		c0,6.1,0,12.4,0,18.5c0,0.3,0,0.6,0,0.8c-0.2,2.2-1.4,3.5-3.4,3.7c-0.4,0-0.7-0.1-0.8,0.4c-0.1,0.3,0.3,0.4,0.9,0.4
		c7.5,0,15,0,22.6,0c0.2,0,0.3,0,0.5,0c0.1-0.1,0.4-0.2,0.4-0.3c0-0.1-0.2-0.3-0.3-0.4c-0.1-0.1-0.4,0-0.6,0
		c-1.4-0.1-2.3-0.9-2.7-2.2c-0.3-1-0.2-2,0.1-3c0.4-1.4,0.8-2.7,1.2-3.9c0-0.2,0.1-0.3,0.2-0.5c3.3,0,6.5,0,9.8,0
		c0.2,0.4,0.3,0.8,0.5,1.2c0.5,1.4,1,2.8,1.5,4.1c0.6,1.9-0.2,3.5-1.9,4.1c-0.4,0.1-0.6,0.2-1,0.2c-0.3,0-0.6,0.1-0.6,0.5
		c0.2,0.4,0.6,0.3,0.9,0.3c4.6,0,9.1,0,13.7,0c0.1,0,0.3,0,0.4,0c0.3,0,0.6-0.1,0.6-0.4c0-0.3-0.3-0.4-0.5-0.4
		c-1.1,0-1.9-0.6-2.7-1.5c-0.7-0.8-1.2-1.8-1.6-2.9c-2.8-7.5-5.6-15.1-8.3-22.7c-0.1-0.3-0.2-0.6-0.3-0.8c-0.1,0-0.1,0-0.1,0
		c-3.2,0-6.5,0-9.7,0c-0.2,0-0.4,0-0.5,0.1c-0.1,0-0.2,0.2-0.2,0.3s0.1,0.2,0.2,0.3c0.2,0.1,0.5,0.1,0.6,0.1c1.2,0.1,1.8,0.7,2,1.8
		c0.1,0.7-0.1,1.4-0.3,2c-1.4,4.3-2.8,8.7-4,13c-0.6,2.2-1.4,4.4-2,6.5c-0.4,1.3-1.1,2.4-2.2,3.1c-1.7,1.1-3.5,0.7-4.7-0.9
		c-0.6-0.9-0.9-1.9-0.9-3c0-6,0-12,0-18c0-0.6,0-1.1,0.1-1.7c0.2-1.7,1-2.5,2.6-2.8c0.3-0.1,0.6-0.1,0.8-0.2c0.1,0,0.2-0.2,0.2-0.3
		c0-0.1-0.1-0.3-0.3-0.3c-0.2-0.1-0.5-0.1-0.6-0.1c-3.1,0-6.2,0-9.4,0c-0.2,0-0.5,0-0.6,0c-2.8,6.2-5.7,12.5-8.5,18.9
		C28.3,98.3,25.1,92,22.1,85.7z M120.4,114c0-0.1,0-0.1,0-0.2c-0.2-0.1-0.5-0.2-0.7-0.2c-0.8,0-1.5-0.4-2.1-0.9
		c-0.9-0.9-1.5-2-1.5-3.4c0-7,0-14,0-21c0-0.1,0-0.2,0-0.3c0-0.6,0.3-0.9,0.9-0.9c1,0,2.1,0,3.1,0c0.1,0,0.3,0,0.5,0.1
		c1.3,0.2,2.3,0.9,3.2,1.8c1.1,1,1.9,2.3,2.6,3.6c0.1,0.3,0.4,0.6,0.7,0.5c0.5-0.2,0.2-0.6,0.1-0.8c-0.8-1.9-1.6-3.9-2.4-5.9
		c-0.1-0.2-0.1-0.3-0.2-0.5c-8.1,0-16.1,0-24.1,0c-0.5,1.1-0.9,2.1-1.4,3.1c-1.4,3.1-2.8,6.1-4.1,9.3c-0.1,0.3-0.3,0.5-0.5,0.8
		c-0.2-0.3-0.4-0.5-0.6-0.6c-1.7-2.8-3.3-5.5-4.9-8.3c-0.3-0.5-0.5-0.9-0.6-1.4c-0.2-0.8,0.2-1.6,0.9-1.9c0.4-0.2,0.7-0.2,1-0.3
		c0.2-0.1,0.4-0.2,0.6-0.3c-0.2-0.5-0.6-0.5-0.8-0.5c-4.2,0-8.4,0-12.8,0c-0.2,0-0.4,0-0.6,0c-0.2,0.1-0.3,0.2-0.4,0.3
		c0.2,0.5,0.6,0.4,0.8,0.4c1.3,0.1,2.4,0.6,3.2,1.5c0.6,0.6,1.2,1.4,1.6,2.2c2,3.4,3.9,6.7,5.9,10.1c0.6,1.1,1,2.3,1,3.7
		c0,1.8,0,3.6,0,5.4c0.1,1.7-0.6,2.8-1.9,3.8c-0.5,0.4-1,0.6-1.6,0.6c-0.3,0-0.6,0-0.7,0.4c-0.1,0.3,0.2,0.4,0.8,0.4
		c4.4,0,8.8,0,13.1,0c0.2,0,0.4,0,0.6,0c0.2-0.1,0.3-0.2,0.4-0.4c-0.1-0.1-0.2-0.2-0.4-0.3c-0.1,0-0.2,0-0.4,0
		c-0.9-0.1-1.7-0.5-2.2-1.1c-0.7-0.8-1.2-1.8-1.2-2.9c0-2.1,0-4.3,0-6.4c0-0.6,0.1-1.1,0.2-1.6c0.2-1.2,0.6-2.3,1-3.3
		c0.9-2.1,1.8-4.1,2.8-6.2c1.2-2.6,3.1-4.2,6-4.8c0.9-0.2,1.8-0.2,2.8-0.2c1.4,0,1.4,0,1.4,1.4c0,6.9,0,13.9,0,20.7c0,0.4,0,0.6,0,1
		c-0.2,1.8-1.4,3.2-3.2,3.5c-0.2,0-0.6,0-0.6,0.4c0.2,0.4,0.6,0.3,1,0.3c4.1,0,8.3,0,12.4,0c0.2,0,0.4,0,0.6,0
		C120,114.2,120.2,114.1,120.4,114z M180.3,99.8c-0.1,0-0.2-0.1-0.2-0.1c-3.4,0-6.8,0-10.2,0c-0.2,0-0.5,0-0.6,0.2
		c-0.1,0.1-0.3,0.3-0.3,0.5c0,0.1,0.2,0.4,0.3,0.4c0.2,0.1,0.5,0.1,0.7,0.1c0.5,0,1,0,1.5,0c1.3,0.1,2,0.8,2.3,2.1
		c0.1,0.4,0.1,0.8,0.1,1.3c0,2.4,0,4.9,0,7.2c0,0.2,0,0.5-0.1,0.6c-0.1,0.5-0.4,0.7-0.8,0.7c-2,0.2-3.9,0.2-6-0.2
		c-1.4-0.3-2.3-1-2.8-2.2c-0.5-1-0.9-2-1.2-3.1c-1-4-1.2-8.3-0.7-12.4c0.2-1.5,0.6-2.8,1.1-4.2c0.9-2.1,2.5-3.4,4.6-3.9
		c1.7-0.5,3.3-0.5,5-0.2c2.5,0.4,4,1.7,4.8,4.1c0.3,0.9,0.4,1.8,0.5,2.8c0,0.3,0,0.6,0.1,0.8c0.1,0.2,0.3,0.4,0.4,0.4
		s0.4-0.1,0.5-0.3s0.2-0.6,0.2-0.7c0-2.5,0-5,0-7.5c0-0.2,0-0.4-0.1-0.6c-0.3,0-0.5,0-0.6,0c-4.1,0-8.3,0-12.4,0c-1,0-2,0.1-2.9,0.3
		c-3.4,0.6-6,2.5-7.4,5.6c-0.6,1.4-1,2.8-1.3,4.2c-0.4,2.5-0.4,5-0.1,7.5c0.2,1.9,0.6,3.9,1.6,5.7c1.2,2.5,3.1,4,5.7,4.9
		c1.4,0.5,2.8,0.6,4.1,0.6c4.4,0.1,8.8,0,13.1-0.5c0.5,0,0.9-0.2,1.5-0.3C180.3,109,180.3,104.4,180.3,99.8z M141,103.9
		c0.3,0.6,0.5,1.3,0.7,1.9c0.5,1.2,0.9,2.4,1.3,3.6c0.6,2.1-0.6,3.9-2.8,4.1c-0.2,0-0.4,0-0.5,0.1c-0.1,0-0.2,0.2-0.2,0.3
		c0,0.1,0.1,0.3,0.3,0.3c0.2,0.1,0.5,0.1,0.7,0.1c4.5,0,9,0,13.5,0c0.2,0,0.3,0,0.5,0c0.3,0,0.5-0.1,0.5-0.4s-0.2-0.4-0.5-0.4
		c-1.3,0-2.2-0.7-2.8-1.7c-0.6-0.7-0.9-1.6-1.3-2.5c-2.8-7.6-5.6-15.3-8.4-22.9c-0.1-0.3-0.2-0.5-0.3-0.7c-3.3,0-6.6,0-9.8,0
		c-0.1,0-0.2,0-0.3,0c-0.1,0.1-0.3,0.3-0.4,0.4c0.1,0.1,0.2,0.2,0.4,0.3c0.2,0.1,0.4,0,0.6,0c1.3,0.1,2,0.8,2,2.1
		c0,0.6-0.1,1.1-0.2,1.6c-2,6.5-4,13-6.1,19.5c-0.2,0.6-0.5,1.2-0.7,1.7c-0.7,1.3-1.7,2-3.2,2.3c-0.3,0-0.6,0-0.6,0.4
		c0,0.4,0.4,0.4,0.6,0.4c0,0,0,0,0.1,0c2.9,0,5.9,0,8.8,0c0.1,0,0.3,0,0.5,0c0.1-0.1,0.3-0.2,0.3-0.3c0-0.1-0.1-0.3-0.3-0.3
		c-0.2-0.1-0.4,0-0.6-0.1c-1.5-0.1-2.5-1-2.8-2.5c-0.1-0.6-0.2-1.2,0-1.8c0.3-1.3,0.6-2.5,1-3.7c0.2-0.6,0.4-1.2,0.6-1.7
		C134.4,103.9,137.7,103.9,141,103.9z M190,88.9c0-2-1.6-3.5-3.6-3.5c-2,0-3.5,1.6-3.6,3.5c0,1.9,1.6,3.6,3.6,3.6
		C188.4,92.5,190,90.9,190,88.9z"/>
	<path d="M22.1,85.7c3.1,6.3,6.1,12.6,9.3,18.9c2.8-6.3,5.7-12.6,8.5-18.9c0.3,0,0.5,0,0.6,0c3.1,0,6.2,0,9.4,0c0.2,0,0.5,0,0.6,0.1
		c0.1,0,0.2,0.2,0.3,0.3c0,0.1-0.1,0.3-0.2,0.3c-0.3,0.1-0.6,0.1-0.8,0.2c-1.7,0.4-2.4,1.2-2.6,2.8c-0.1,0.6-0.1,1.1-0.1,1.7
		c0,6,0,12,0,18c0,1.1,0.3,2.1,0.9,3c1.2,1.7,3,1.9,4.7,0.9c1.1-0.7,1.8-1.8,2.2-3.1c0.6-2.2,1.4-4.4,2-6.5c1.4-4.3,2.8-8.7,4-13
		c0.2-0.6,0.4-1.3,0.3-2c-0.2-1.2-0.8-1.7-2-1.8c-0.2,0-0.5,0-0.6-0.1c-0.1,0-0.2-0.2-0.2-0.3c0-0.1,0.1-0.2,0.2-0.3
		c0.2-0.1,0.4-0.1,0.5-0.1c3.2,0,6.5,0,9.7,0c0,0,0,0,0.1,0c0.1,0.2,0.2,0.6,0.3,0.8c2.8,7.5,5.6,15.1,8.3,22.7c0.4,1,0.8,2,1.6,2.9
		c0.6,0.8,1.5,1.5,2.7,1.5c0.2,0,0.5,0.1,0.5,0.4c0,0.4-0.3,0.4-0.6,0.4c-0.1,0-0.3,0-0.4,0c-4.6,0-9.1,0-13.7,0
		c-0.4,0-0.6,0.1-0.9-0.3c0.1-0.4,0.4-0.4,0.6-0.5c0.4,0,0.6-0.1,1-0.2c1.7-0.6,2.5-2.3,1.9-4.1c-0.5-1.4-1-2.8-1.5-4.1
		c-0.1-0.4-0.3-0.7-0.5-1.2c-3.3,0-6.5,0-9.8,0c-0.1,0.1-0.2,0.3-0.2,0.5c-0.5,1.3-0.8,2.7-1.2,3.9c-0.3,1-0.4,2-0.1,3
		c0.4,1.3,1.4,2.1,2.7,2.2c0.2,0,0.4,0,0.6,0c0.1,0.1,0.3,0.2,0.3,0.4c0,0.1-0.2,0.3-0.4,0.3c-0.1,0.1-0.3,0-0.5,0
		c-7.5,0-15,0-22.6,0c-0.6,0-1-0.1-0.9-0.4c0.1-0.5,0.6-0.4,0.8-0.4c2-0.3,3.1-1.5,3.4-3.7c0-0.3,0-0.6,0-0.8c0-6.1,0-12.4,0-18.5
		c0-0.4,0.1-0.8-0.4-1c-0.4,0.1-0.5,0.5-0.6,0.6c-1.6,3.5-3.2,7-4.8,10.6c-1.9,4.2-3.9,8.5-5.8,12.8c-0.1,0.2-0.2,0.5-0.4,0.7
		c-0.5-0.3-0.6-0.6-0.7-1c-1.4-2.8-2.8-5.5-4.1-8.3c-2.2-4.5-4.5-9-6.7-13.5c-0.1-0.2-0.2-0.5-0.4-0.6c-0.1-0.1-0.4-0.2-0.6-0.2
		c-0.2,0-0.3,0.3-0.4,0.5c-0.1,0.2,0,0.4,0,0.6c0,5.3,0,10.7,0,16.1c0,1.3,0.2,2.6,0.7,3.8c0.5,1.1,1.2,1.8,2.4,2.1
		c0.2,0,0.5,0,0.7,0.1c0.2,0,0.4,0.2,0.5,0.4c0,0.3-0.2,0.4-0.5,0.4c-0.1,0-0.3,0-0.5,0c-2.8,0-5.6,0-8.3,0c-0.2,0-0.4,0-0.6,0
		c-0.1,0-0.3-0.2-0.3-0.3c0-0.1,0.1-0.2,0.2-0.4c0.1-0.1,0.2,0,0.3-0.1c1.7-0.1,2.7-0.9,3.4-2.1c0.4-0.7,0.6-1.6,0.6-2.4
		c0-0.5,0.1-1,0.1-1.5c0-5.6,0-11.2,0-16.8c0-0.3,0-0.6,0-0.9c-0.2-2.1-1.4-3.3-3.4-3.4c-0.2,0-0.4,0-0.6,0c-0.1,0-0.3-0.2-0.4-0.3
		c0.1-0.1,0.2-0.3,0.4-0.4c0.1,0,0.2,0,0.3,0c3.6,0,7.1,0,10.6,0C21.7,85.7,21.8,85.7,22.1,85.7z M68.1,102.7
		c-0.1-0.3-0.1-0.5-0.2-0.6c-0.3-0.8-0.6-1.7-0.9-2.6c-1.1-3-2.2-6-3.3-9c-0.1-0.3-0.1-0.6-0.6-0.7c-0.5,1-0.6,2.1-1,3.1
		c-0.4,1.1-0.6,2.2-1,3.3c-0.4,1.1-0.6,2.1-1,3.2c-0.4,1.1-0.6,2.2-1,3.3C62.1,102.7,65,102.7,68.1,102.7z"/>
	<path d="M120.4,114c-0.2,0.1-0.4,0.2-0.6,0.3c-0.2,0-0.4,0-0.6,0c-4.1,0-8.3,0-12.4,0c-0.4,0-0.7,0.1-1-0.3
		c0.1-0.4,0.4-0.4,0.6-0.4c1.7-0.4,3-1.7,3.2-3.5c0-0.4,0-0.6,0-1c0-6.9,0-13.9,0-20.7c0-1.4,0-1.4-1.4-1.4c-0.9,0-1.8,0-2.8,0.2
		c-2.8,0.5-4.8,2.1-6,4.8c-0.9,2-1.8,4.1-2.8,6.2c-0.5,1.1-0.8,2.2-1,3.3c-0.1,0.6-0.2,1.1-0.2,1.6c0,2.1,0,4.3,0,6.4
		c0,1.2,0.5,2.1,1.2,2.9c0.6,0.6,1.4,1,2.2,1.1c0.1,0,0.3,0,0.4,0c0.1,0.1,0.3,0.2,0.4,0.3c-0.1,0.1-0.2,0.3-0.4,0.4
		c-0.1,0.1-0.4,0-0.6,0c-4.4,0-8.8,0-13.1,0c-0.6,0-0.9-0.1-0.8-0.4c0.1-0.5,0.5-0.4,0.7-0.4c0.6-0.1,1.1-0.4,1.6-0.6
		c1.2-1,1.9-2.1,1.9-3.8c-0.1-1.8,0-3.6,0-5.4c0-1.3-0.4-2.5-1-3.7c-1.9-3.4-3.9-6.8-5.9-10.1c-0.5-0.7-1-1.5-1.6-2.2
		c-0.8-0.9-1.9-1.4-3.2-1.5c-0.3,0-0.6,0.1-0.8-0.4c0.1-0.1,0.3-0.2,0.4-0.3c0.2-0.1,0.4,0,0.6,0c4.2,0,8.4,0,12.8,0
		c0.3,0,0.6-0.1,0.8,0.5c-0.2,0.1-0.4,0.2-0.6,0.3c-0.4,0.1-0.7,0.2-1,0.3c-0.8,0.4-1.1,1.1-0.9,1.9c0.1,0.5,0.3,0.9,0.6,1.4
		c1.7,2.8,3.2,5.5,4.9,8.3c0.1,0.2,0.3,0.4,0.6,0.6c0.2-0.4,0.4-0.6,0.5-0.8c1.4-3.1,2.8-6.1,4.1-9.3c0.5-1,0.9-2.1,1.4-3.1
		c8.1,0,16.1,0,24.1,0c0.1,0.2,0.2,0.4,0.2,0.5c0.8,1.9,1.6,3.9,2.4,5.9c0.1,0.3,0.4,0.6-0.1,0.8c-0.4,0.2-0.6-0.2-0.7-0.5
		c-0.6-1.4-1.6-2.6-2.6-3.6c-0.9-0.9-1.9-1.6-3.2-1.8c-0.1,0-0.3-0.1-0.5-0.1c-1,0-2.1,0-3.1,0c-0.6,0-0.9,0.3-0.9,0.9
		c0,0.1,0,0.2,0,0.3c0,7,0,14,0,21c0,1.4,0.6,2.5,1.5,3.4c0.6,0.6,1.3,0.9,2.1,0.9c0.2,0,0.5,0.1,0.7,0.2
		C120.4,113.9,120.4,113.9,120.4,114z"/>
	<path d="M180.3,99.8c0,4.6,0,9.2,0,13.8c-0.5,0.1-0.9,0.2-1.5,0.3c-4.4,0.5-8.7,0.6-13.1,0.5c-1.4,0-2.8-0.2-4.1-0.6
		c-2.6-0.8-4.5-2.4-5.7-4.9c-0.9-1.8-1.4-3.7-1.6-5.7c-0.3-2.6-0.3-5,0.1-7.5c0.2-1.5,0.6-2.9,1.3-4.2c1.6-3.1,4-5,7.4-5.6
		c1-0.2,2-0.3,2.9-0.3c4.1,0,8.3,0,12.4,0c0.2,0,0.5,0,0.6,0c0,0.2,0.1,0.4,0.1,0.6c0,2.5,0,5,0,7.5c0,0.3,0,0.6-0.2,0.7
		c-0.1,0.1-0.3,0.3-0.5,0.3c-0.1,0-0.4-0.2-0.4-0.4c-0.1-0.3-0.1-0.6-0.1-0.8c-0.2-0.9-0.2-1.8-0.5-2.8c-0.7-2.4-2.3-3.8-4.8-4.1
		c-1.7-0.2-3.4-0.3-5,0.2c-2.1,0.6-3.8,1.8-4.6,3.9c-0.6,1.4-0.9,2.8-1.1,4.2c-0.6,4.1-0.4,8.3,0.7,12.4c0.3,1.1,0.7,2.1,1.2,3.1
		c0.6,1.3,1.6,1.9,2.8,2.2c2,0.4,3.9,0.4,6,0.2c0.5,0,0.7-0.4,0.8-0.7c0-0.2,0.1-0.5,0.1-0.6c0-2.4,0-4.9,0-7.2c0-0.5,0-0.8-0.1-1.3
		c-0.2-1.3-1-1.9-2.3-2.1c-0.5,0-1,0-1.5,0c-0.3,0-0.5,0-0.7-0.1c-0.1,0-0.3-0.3-0.3-0.4c0-0.2,0.1-0.4,0.3-0.5s0.5-0.2,0.6-0.2
		c3.4,0,6.8,0,10.2,0C180.1,99.7,180.2,99.8,180.3,99.8z"/>
	<path d="M141,103.9c-3.3,0-6.5,0-9.8,0c-0.2,0.6-0.4,1.2-0.6,1.7c-0.4,1.2-0.7,2.4-1,3.7c-0.1,0.6-0.1,1.2,0,1.8
		c0.3,1.5,1.4,2.3,2.8,2.5c0.2,0,0.4,0,0.6,0.1c0.1,0,0.3,0.2,0.3,0.3c0,0.1-0.1,0.3-0.3,0.3c-0.1,0.1-0.3,0-0.5,0
		c-2.9,0-5.9,0-8.8,0c0,0,0,0-0.1,0c-0.3,0-0.6,0-0.6-0.4s0.3-0.4,0.6-0.4c1.5-0.3,2.5-1.1,3.2-2.3c0.3-0.6,0.6-1.1,0.7-1.7
		c2-6.5,4-13,6.1-19.5c0.2-0.6,0.3-1,0.2-1.6c0-1.3-0.7-2-2-2.1c-0.2,0-0.4,0-0.6,0c-0.1,0-0.3-0.2-0.4-0.3c0.1-0.1,0.2-0.3,0.4-0.4
		c0.1,0,0.2,0,0.3,0c3.3,0,6.5,0,9.8,0c0.1,0.3,0.2,0.5,0.3,0.7c2.8,7.6,5.6,15.3,8.4,22.9c0.4,0.8,0.7,1.7,1.3,2.5
		c0.6,1,1.6,1.7,2.8,1.7c0.3,0,0.5,0.1,0.5,0.4s-0.2,0.4-0.5,0.4c-0.2,0-0.3,0-0.5,0c-4.5,0-9,0-13.5,0c-0.3,0-0.5,0-0.7-0.1
		c-0.1,0-0.2-0.2-0.3-0.3c0-0.1,0.1-0.2,0.2-0.3c0.2-0.1,0.4-0.1,0.5-0.1c2.2-0.3,3.4-2,2.8-4.1c-0.4-1.2-0.8-2.4-1.3-3.6
		C141.5,105.2,141.2,104.6,141,103.9z M131.5,102.7c3,0,6,0,9.1,0c-1.6-4.3-3.1-8.5-4.7-12.8c0-0.1-0.1-0.1-0.2-0.2
		c-0.5,0.1-0.4,0.5-0.5,0.8c-1.2,3.8-2.3,7.5-3.5,11.4C131.7,102.2,131.6,102.5,131.5,102.7z"/>
	<path d="M190,88.9c0,2-1.6,3.6-3.6,3.6c-2,0-3.6-1.6-3.6-3.6c0-1.9,1.6-3.5,3.6-3.5C188.4,85.4,190,87,190,88.9z M186.5,91.8
		c1.6,0,2.8-1.3,2.8-2.9s-1.3-2.9-2.8-2.9c-1.7,0-2.9,1.3-2.8,3C183.6,90.6,184.9,91.8,186.5,91.8z"/>
	<path d="M187.1,89.3c0.4,0.6,0.6,1.1,1,1.6c-0.4,0.2-0.6,0.1-0.7-0.2c-0.2-0.4-0.5-0.6-0.6-1c-0.2-0.4-0.5-0.6-1-0.4
		c0,0.4,0,0.8,0,1.2s-0.1,0.6-0.6,0.4c0-0.6,0-1.3,0-1.9c0-0.6,0-1.3,0-2c0.6,0,1.3,0,1.9,0c0.6,0,0.9,0.4,1,0.8
		c0.1,0.6-0.1,1-0.6,1.3C187.3,89.1,187.2,89.2,187.1,89.3z M185.8,87.4c0,0.5,0,0.8,0,1.2c0.4,0,0.7,0,1.1,0c0.4,0,0.6-0.2,0.6-0.6
		s-0.2-0.6-0.6-0.6C186.5,87.4,186.1,87.4,185.8,87.4z"/>
</g>
</svg>
