<?xml version="1.0" encoding="utf-8"?>
<!-- Generator: Adobe Illustrator 26.2.1, SVG Export Plug-In . SVG Version: 6.00 Build 0)  -->
<svg version="1.1" id="Layer_1" xmlns="http://www.w3.org/2000/svg" xmlns:xlink="http://www.w3.org/1999/xlink" x="0px" y="0px"
	 viewBox="0 0 200 202" style="enable-background:new 0 0 200 202;" xml:space="preserve">
<g>
	<path d="M189.9,85.3c-2.5-14-44.6-18.4-94.3-9.8c-20.8,3.7-39.7,9-54.3,15c2.3,0.1,3.9,0.5,4.9,1.6c0.8,0.8,1.2,1.9,1.2,3.2v1.4
		h-4.9v-1.2c0-1-0.6-1.6-1.7-1.6c-0.9,0-1.5,0.5-1.6,1.2c-0.1,0.2-0.1,0.6,0,1c0.5,2.1,7.8,3.5,8.5,7.4c0.1,0.5,0.3,1.6,0,3.1
		c-0.5,3.2-3.2,4.4-6.8,4.4c-4.9,0-7-2.4-7-5.6v-1.6h5.2v1.9c0,1.1,0.7,1.6,1.8,1.6c1,0,1.6-0.4,1.8-1.2c0.1-0.4,0.1-0.9,0-1.4
		c-1-2.4-7.7-3.6-8.5-7.5c-0.2-0.9-0.2-1.6-0.1-2.6c0.1-0.5,0.3-0.9,0.5-1.4c-16.2,7.6-25.8,15.9-24.6,23.2
		c2.5,14.1,44.7,18.5,94.3,9.8c21.8-3.8,41.4-9.4,56.4-15.9c-0.2,0-0.5,0-0.6,0c-3.4,0-6.4-1.3-6.8-4.8c-0.1-0.6-0.1-0.9-0.1-1.3v-8
		c0-0.4,0-0.9,0.1-1.3c0.4-3.4,3-4.8,6.7-4.8c2.8,0,6.3,0.8,6.7,4.8c0.1,0.5,0,1,0,1.2l0,0v0.7h-4.9v-1l0,0c0,0,0-0.5-0.1-0.7
		c-0.1-0.4-0.5-1.4-1.8-1.4c-1.4,0-1.7,0.9-1.8,1.4c-0.1,0.2-0.1,0.5-0.1,0.9v8.7c0,0.3,0,0.5,0,0.7c0,0.1,0.3,1.4,1.9,1.4
		c1.6,0,1.8-1.2,1.8-1.4c0-0.3,0.1-0.5,0-0.7v-2.7h-1.9v-2.9h6.9v5.1c0,0.4,0,0.6-0.1,1.3c-0.1,0.9-0.4,1.6-0.8,2.4
		C181.9,100.6,191.1,92.5,189.9,85.3z M61.1,110.3l-2.5-17h-0.1l-2.6,17h-5.2l3.6-19.2h8.5l3.5,19.2H61.1z M86.4,110.3l-0.1-16.6
		h-0.1l-3.1,16.6h-4.9l-3.1-16.6l0,0L75,110.3h-4.9l0.4-19.2h7.9l2.2,14.2h0.1L83,91.1h7.9l0.5,19.2H86.4z M109.3,106.5
		c-0.5,3.7-4.1,4.3-6.7,4.3c-4.2,0-6.9-1.8-6.9-5.5v-1.5h5.1v1.9c0,1,0.7,1.6,1.8,1.6c1,0,1.6-0.4,1.7-1.2c0.1-0.4,0.1-0.9,0-1.4
		c-0.9-2.4-7.6-3.6-8.4-7.4c-0.2-0.9-0.2-1.6-0.1-2.6c0.5-3.5,3.9-4.2,6.6-4.2c2.4,0,4.2,0.5,5.2,1.6c0.8,0.8,1.2,1.8,1.2,3.2v1.4
		h-4.9v-1.2c0-1-0.6-1.6-1.6-1.6c-0.9,0-1.5,0.4-1.6,1.2c0,0.2-0.1,0.5,0,0.9c0.5,2.1,7.7,3.4,8.4,7.3
		C109.4,103.9,109.6,105,109.3,106.5z M127.2,104.8c0,0.4,0,1.1-0.1,1.3c-0.3,3.1-2.6,4.8-6.7,4.8c-4.1,0-6.4-1.6-6.7-4.8
		c0-0.2-0.1-0.9-0.1-1.3V91.1h4.9v14.1c0,0.3,0,0.5,0,0.7c0.1,0.3,0.4,1.4,1.7,1.4c1.4,0,1.7-1,1.7-1.4c0-0.2,0-0.4,0-0.7V91.1h4.9
		C127.2,91.1,127.2,104.8,127.2,104.8z M148.5,110.1h-6.9L137,95h-0.1l0.3,15.1h-4.8v-19h7.1l4.2,14.6h0.1l-0.3-14.6h4.9
		L148.5,110.1L148.5,110.1z"/>
</g>
</svg>
