<?xml version="1.0" encoding="utf-8"?>
<!-- Generator: Adobe Illustrator 26.2.1, SVG Export Plug-In . SVG Version: 6.00 Build 0)  -->
<svg version="1.1" id="Layer_1" xmlns="http://www.w3.org/2000/svg" xmlns:xlink="http://www.w3.org/1999/xlink" x="0px" y="0px"
	 viewBox="0 0 200 200" style="enable-background:new 0 0 200 200;" xml:space="preserve">
<g>
	<polygon points="52.4,76.5 43.2,110.4 37.8,110.4 31.2,85.7 24.6,110.4 19.2,110.4 10,76.5 15.3,76.5 21.9,101.1 28.6,76.5 
		33.8,76.5 40.5,101.1 47.1,76.5 	"/>
	<path d="M54.9,76.6l5.3-0.5v8.3l-0.1,3.1h0.2c2.4-0.9,4.5-1.3,6.8-1.3c4.3,0,7.2,2,7.2,9.4v14.8h-5.3V95.9c0-4.5-2.2-5.1-4.7-5.1
		c-1.6,0-2.9,0.4-4.2,0.8v18.7h-5.3L54.9,76.6L54.9,76.6z"/>
	<path d="M81.8,76.9c2.7,0,3.2,1.6,3.2,3.4s-0.6,3.5-3.2,3.5c-2.6,0-3.2-1.7-3.2-3.5C78.6,78.5,79.1,76.9,81.8,76.9 M79.1,86.5h5.3
		v23.8h-5.3V86.5z"/>
	<path d="M89,86.5h3.7l0.8,2h0.4c1.4-1.2,3.7-2.3,6.6-2.3c0.4,0,0.8,0,1.1,0.1v5.3c-0.9-0.2-2-0.3-3-0.3c-1.5,0-2.6,0.4-4,0.9v18.2
		h-5.3L89,86.5L89,86.5z"/>
	<polygon points="103.6,110.4 103.6,76.6 109,76.1 109,110.4 	"/>
	<path d="M146.9,86.2c7.6,0,10.5,4.5,10.5,12.4c0,7.4-2.7,12.3-10.6,12.3s-10.6-4.9-10.6-12.3C136.2,90.7,139.3,86.2,146.9,86.2
		 M151.9,98.5c0-4.5-0.8-8.2-5-8.2c-4.3,0-5.3,3.6-5.3,8.2c0,4.3,0.8,8.1,5.2,8.1C150.9,106.6,151.9,103,151.9,98.5"/>
	<path d="M170.8,86.2c7.6,0,10.5,4.5,10.5,12.4c0,7.4-2.7,12.3-10.6,12.3c-7.9,0-10.6-4.9-10.6-12.3
		C160.1,90.7,163.2,86.2,170.8,86.2 M175.8,98.5c0-4.5-0.8-8.2-5-8.2c-4.3,0-5.3,3.6-5.3,8.2c0,4.3,0.8,8.1,5.2,8.1
		C174.8,106.6,175.8,103,175.8,98.5"/>
	<polygon points="184.7,110.4 184.7,76.6 190,76.1 190,110.4 	"/>
	<path d="M113.3,86.5h4l0.5,1.8c1.6-0.8,4.6-2.1,7.2-2.1c4.9,0,8.3,3.6,8.3,12c0,8.3-3.8,12.5-9.9,12.5c-2.3,0-4.8-0.5-4.8-0.5v10.8
		l-5.3,0.6V86.5z M118.6,105.9c1.5,0,2.3,0.1,3.8,0.1c3.3,0,5.4-1.8,5.4-8.7c0-4.8-2-6-5.4-6c-1.3,0-2.6,0.3-3.9,0.7L118.6,105.9
		C118.5,105.9,118.6,105.9,118.6,105.9z"/>
	<path d="M139.7,71.9c-4-4.6-16.6-0.6-30.8,9.2v2.4c12.5-8.8,23.4-12.9,26.5-9.3c3.9,4.5-5.8,19.4-21.8,33.2s-32.1,21.2-36,16.7
		c-2.1-2.3-0.4-7.5,3.9-13.8h-2.5c-5.3,8-7.3,14.6-4.6,17.7c5,5.8,23.6-2.2,41.6-17.6C134.1,94.9,144.7,77.6,139.7,71.9"/>
</g>
</svg>
