<svg width="304" height="300" viewBox="0 0 304 300" fill="none" xmlns="http://www.w3.org/2000/svg">
<path fill-rule="evenodd" clip-rule="evenodd" d="M80.5674 0.0549246C2.86742 -2.24507 0.167422 68.4549 0.167422 68.4549C-4.03258 173.455 71.5674 299.055 139.367 299.255C217.967 299.455 315.367 154.055 302.267 76.6549C290.135 4.97195 176.962 2.33617 98.5868 0.510813C92.336 0.365235 86.3066 0.22481 80.5674 0.0549246ZM176.067 47.3549H202.267C204.567 47.3549 206.367 49.2549 206.267 51.4549V82.4549C206.267 84.7549 204.467 86.5549 202.167 86.5549H184.567C172.367 86.5549 170.167 91.3549 170.167 100.655V120.055H200.967C202.067 120.055 203.067 120.455 203.867 121.255C204.667 122.055 205.067 123.055 205.067 124.155V157.355C205.067 159.655 203.267 161.455 200.967 161.455H170.167V245.255C170.167 247.555 168.367 249.355 166.067 249.355H131.667C129.367 249.355 127.567 247.555 127.567 245.255V161.355H101.267C98.9674 161.355 97.1674 159.555 97.1674 157.255V124.055C97.1674 121.755 98.9674 119.955 101.267 119.955H127.567V97.0549C127.567 66.8549 146.667 47.3549 176.067 47.3549Z" fill="white"/>
</svg>
