<svg width="304" height="300" viewBox="0 0 304 300" fill="none" xmlns="http://www.w3.org/2000/svg">
<path d="M151.768 162.2C133.768 162.2 119.167 147.6 119.167 129.6C119.167 111.6 133.768 97 151.768 97C169.768 97 184.367 111.6 184.367 129.6C184.367 147.6 169.768 162.2 151.768 162.2Z" fill="white"/>
<path fill-rule="evenodd" clip-rule="evenodd" d="M160.563 209.713C193.846 209.79 209.242 209.826 220.567 198.5C231.865 187.109 231.917 172.057 232.037 137.31L232.037 137.295L232.038 137.117C232.046 134.708 232.054 132.204 232.067 129.6C232.067 103.5 231.967 100.4 231.467 90.1C229.637 48.8356 200.935 49.0934 162.824 49.4357L160.683 49.4547C159.23 49.4672 157.763 49.4786 156.284 49.4869C154.856 49.495 153.417 49.5 151.967 49.5L151.567 49.3C125.367 49.3 122.367 49.4 111.967 49.8C70.6962 51.9 70.9438 79.0948 71.2988 118.062C71.3325 121.772 71.3674 125.588 71.3674 129.5C71.3674 134.167 71.3183 138.611 71.2714 142.839C70.9848 168.778 70.7875 186.62 82.5673 198.4C93.9072 209.74 109.333 209.729 145.979 209.703C147.789 209.701 149.651 209.7 151.567 209.7C154.704 209.7 157.7 209.707 160.563 209.713ZM215.667 77.5C215.667 83.9618 210.429 89.2001 203.967 89.2001C197.506 89.2001 192.267 83.9618 192.267 77.5C192.267 71.0383 197.506 65.8 203.967 65.8C210.429 65.8 215.667 71.0383 215.667 77.5ZM151.768 79.5C124.067 79.5 101.567 102 101.567 129.7C101.567 157.4 124.067 179.9 151.768 179.9C179.467 179.9 201.967 157.4 201.967 129.7C201.967 101.9 179.467 79.5 151.768 79.5Z" fill="white"/>
<path fill-rule="evenodd" clip-rule="evenodd" d="M80.5673 0.800044C2.86737 -1.5 0.167418 69.2001 0.167418 69.2001C-4.03253 174.2 71.5673 299.8 139.367 300C217.967 300.2 315.367 154.8 302.267 77.4C290.135 5.71716 176.962 3.08129 98.5871 1.25598C92.3361 1.11035 86.3066 0.969966 80.5673 0.800044ZM111.467 32.5C129.567 31.6999 174.067 31.6999 192.067 32.5C228.867 34.1999 247.267 55 248.867 89.3C249.667 107.4 249.667 151.9 248.867 169.9C247.567 199 233.867 215.2 215.767 222.2C202.467 227.3 189.467 227.3 151.767 227.3C149.801 227.3 147.866 227.307 145.963 227.318C144.03 227.329 142.13 227.343 140.261 227.357C109.598 227.59 87.3268 227.76 70.4672 210.9C53.7346 194.167 53.8542 172.281 54.0297 140.135C54.0483 136.74 54.0673 133.23 54.0673 129.6C54.0673 125.704 54.041 121.937 54.0153 118.293C53.7971 87.2378 53.6418 65.1256 70.4672 48.3C81.6674 37.1 95.6674 33.1999 111.467 32.5Z" fill="white"/>
</svg>
