<svg width="34" height="36" viewBox="0 0 34 36" fill="none" xmlns="http://www.w3.org/2000/svg">
<path fill-rule="evenodd" clip-rule="evenodd" d="M13.0512 3.16841C13.7195 3.07818 14.3536 3.47695 14.5588 4.11654L16.6442 10.6168C16.8329 11.2049 16.6103 11.8498 16.0974 12.2008L13.317 14.1037C13.9465 15.5691 14.8059 16.9972 15.8707 18.2506C16.9578 19.4849 18.2472 20.541 19.6066 21.375L21.8901 18.8977C22.3113 18.4407 22.9815 18.3133 23.5364 18.5847L29.6685 21.5845C30.2719 21.8797 30.5752 22.5646 30.3896 23.213L28.6728 29.2123C28.474 29.9071 27.7838 30.332 27.0881 30.2141C21.252 29.8613 15.5622 27.3379 11.34 22.7351C11.2992 22.6979 11.2601 22.658 11.2231 22.6152C11.1662 22.5494 11.1098 22.4834 11.0538 22.4173C10.9963 22.3523 10.9392 22.287 10.8823 22.2212C10.8453 22.1784 10.8114 22.134 10.7805 22.0882C6.83379 17.2471 5.15618 11.2532 5.64754 5.42714C5.63109 4.72177 6.15094 4.09994 6.86715 4.00325L13.0512 3.16841ZM13.1736 20.5836C16.6841 24.5409 21.3991 26.8184 26.3065 27.3468L27.3835 23.5833L23.2286 21.5507L20.9188 24.0565C20.84 24.146 20.7512 24.2239 20.655 24.2893C20.4915 24.401 20.3093 24.4747 20.1211 24.5099C19.9128 24.549 19.695 24.5414 19.4844 24.4818C19.3815 24.4529 19.2813 24.4118 19.1858 24.3586C17.2851 23.3498 15.4438 21.9631 13.9095 20.2624C13.885 20.238 13.8612 20.2125 13.8382 20.1859C13.809 20.1521 13.7799 20.1182 13.7509 20.0842C13.7214 20.0507 13.6921 20.017 13.6629 19.9833C13.6399 19.9566 13.6181 19.9294 13.5974 19.9016C12.1355 18.1384 11.0285 16.1166 10.3039 14.0904C10.265 13.9883 10.2388 13.8831 10.225 13.7771C10.1963 13.5602 10.2201 13.3435 10.2889 13.1431C10.3508 12.9619 10.45 12.7922 10.584 12.6465C10.6626 12.5607 10.7525 12.4841 10.8524 12.419L13.6648 10.4942L12.2518 6.08981L8.3724 6.61353C8.1885 11.5459 9.76313 16.5398 13.1736 20.5836Z" fill="white"/>
</svg>
