<svg width="197" height="31" viewBox="0 0 197 31" fill="none" xmlns="http://www.w3.org/2000/svg">
<path d="M32.1433 11.725C31.6493 10.18 28.9303 9.827 26.0513 9.446C24.4733 9.239 22.6803 9.005 22.1393 8.604C21.5943 8.206 20.8343 6.569 20.1623 5.122C18.9403 2.491 17.7833 0.00900006 16.1653 0.00500005L16.1353 0C14.5313 0.027 13.3623 2.479 12.1193 5.082C11.4343 6.521 10.6553 8.152 10.1123 8.547C9.56328 8.938 7.77028 9.158 6.18728 9.35C3.31128 9.7 0.588284 10.028 0.0802835 11.565C-0.427717 13.102 1.55928 14.991 3.66528 16.987C4.82128 18.085 6.13028 19.329 6.33628 19.969C6.54228 20.609 6.19328 22.385 5.88828 23.946C5.33028 26.79 4.80328 29.483 6.10728 30.446C6.41928 30.669 6.81128 30.782 7.27428 30.772C8.60528 30.751 10.5203 29.715 12.3713 28.711C13.7583 27.953 15.3313 27.098 16.0313 27.09C16.7083 27.09 18.2863 27.969 19.6783 28.744C21.5713 29.795 23.5303 30.883 24.8633 30.861C25.2793 30.855 25.6343 30.748 25.9243 30.539C27.2363 29.594 26.7363 26.902 26.2093 24.047C25.9193 22.483 25.5943 20.703 25.7993 20.063C26.0113 19.426 27.3353 18.198 28.5023 17.108C30.6273 15.131 32.6333 13.27 32.1433 11.725Z" fill="url(#paint0_linear)"/>
<path d="M73.1433 11.725C72.6493 10.18 69.9303 9.827 67.0513 9.446C65.4733 9.239 63.6803 9.005 63.1393 8.604C62.5943 8.206 61.8343 6.569 61.1623 5.122C59.9403 2.491 58.7833 0.00900006 57.1653 0.00500005L57.1353 0C55.5313 0.027 54.3623 2.479 53.1193 5.082C52.4343 6.521 51.6553 8.152 51.1123 8.547C50.5633 8.938 48.7703 9.158 47.1873 9.35C44.3113 9.7 41.5883 10.028 41.0803 11.565C40.5723 13.102 42.5593 14.991 44.6653 16.987C45.8213 18.085 47.1303 19.329 47.3363 19.969C47.5423 20.609 47.1933 22.385 46.8883 23.946C46.3303 26.79 45.8033 29.483 47.1073 30.446C47.4193 30.669 47.8113 30.782 48.2743 30.772C49.6053 30.751 51.5203 29.715 53.3713 28.711C54.7583 27.953 56.3313 27.098 57.0313 27.09C57.7083 27.09 59.2863 27.969 60.6783 28.744C62.5713 29.795 64.5303 30.883 65.8633 30.861C66.2793 30.855 66.6343 30.748 66.9243 30.539C68.2363 29.594 67.7363 26.902 67.2093 24.047C66.9193 22.483 66.5943 20.703 66.7993 20.063C67.0113 19.426 68.3353 18.198 69.5023 17.108C71.6273 15.131 73.6333 13.27 73.1433 11.725Z" fill="url(#paint1_linear)"/>
<path d="M114.143 11.725C113.649 10.18 110.93 9.827 108.051 9.446C106.473 9.239 104.68 9.005 104.139 8.604C103.594 8.206 102.834 6.569 102.162 5.122C100.94 2.491 99.7833 0.00900006 98.1653 0.00500005L98.1353 0C96.5313 0.027 95.3623 2.479 94.1193 5.082C93.4343 6.521 92.6553 8.152 92.1123 8.547C91.5633 8.938 89.7703 9.158 88.1873 9.35C85.3113 9.7 82.5883 10.028 82.0803 11.565C81.5723 13.102 83.5593 14.991 85.6653 16.987C86.8213 18.085 88.1303 19.329 88.3363 19.969C88.5423 20.609 88.1933 22.385 87.8883 23.946C87.3303 26.79 86.8033 29.483 88.1073 30.446C88.4193 30.669 88.8113 30.782 89.2743 30.772C90.6053 30.751 92.5203 29.715 94.3713 28.711C95.7583 27.953 97.3313 27.098 98.0313 27.09C98.7083 27.09 100.286 27.969 101.678 28.744C103.571 29.795 105.53 30.883 106.863 30.861C107.279 30.855 107.634 30.748 107.924 30.539C109.236 29.594 108.736 26.902 108.209 24.047C107.919 22.483 107.594 20.703 107.799 20.063C108.011 19.426 109.335 18.198 110.502 17.108C112.627 15.131 114.633 13.27 114.143 11.725Z" fill="url(#paint2_linear)"/>
<path d="M155.143 11.725C154.649 10.18 151.93 9.827 149.051 9.446C147.473 9.239 145.68 9.005 145.139 8.604C144.594 8.206 143.834 6.569 143.162 5.122C141.94 2.491 140.783 0.00900006 139.165 0.00500005L139.135 0C137.531 0.027 136.362 2.479 135.119 5.082C134.434 6.521 133.655 8.152 133.112 8.547C132.563 8.938 130.77 9.158 129.187 9.35C126.311 9.7 123.588 10.028 123.08 11.565C122.572 13.102 124.559 14.991 126.665 16.987C127.821 18.085 129.13 19.329 129.336 19.969C129.542 20.609 129.193 22.385 128.888 23.946C128.33 26.79 127.803 29.483 129.107 30.446C129.419 30.669 129.811 30.782 130.274 30.772C131.605 30.751 133.52 29.715 135.371 28.711C136.758 27.953 138.331 27.098 139.031 27.09C139.708 27.09 141.286 27.969 142.678 28.744C144.571 29.795 146.53 30.883 147.863 30.861C148.279 30.855 148.634 30.748 148.924 30.539C150.236 29.594 149.736 26.902 149.209 24.047C148.919 22.483 148.594 20.703 148.799 20.063C149.011 19.426 150.335 18.198 151.502 17.108C153.627 15.131 155.633 13.27 155.143 11.725Z" fill="url(#paint3_linear)"/>
<path d="M196.143 11.725C195.649 10.18 192.93 9.827 190.051 9.446C188.473 9.239 186.68 9.005 186.139 8.604C185.594 8.206 184.834 6.569 184.162 5.122C182.94 2.491 181.783 0.00900006 180.165 0.00500005L180.135 0C178.531 0.027 177.362 2.479 176.119 5.082C175.434 6.521 174.655 8.152 174.112 8.547C173.563 8.938 171.77 9.158 170.187 9.35C167.311 9.7 164.588 10.028 164.08 11.565C163.572 13.102 165.559 14.991 167.665 16.987C168.821 18.085 170.13 19.329 170.336 19.969C170.542 20.609 170.193 22.385 169.888 23.946C169.33 26.79 168.803 29.483 170.107 30.446C170.419 30.669 170.811 30.782 171.274 30.772C172.605 30.751 174.52 29.715 176.371 28.711C177.758 27.953 179.331 27.098 180.031 27.09C180.708 27.09 182.286 27.969 183.678 28.744C185.571 29.795 187.53 30.883 188.863 30.861C189.279 30.855 189.634 30.748 189.924 30.539C191.236 29.594 190.736 26.902 190.209 24.047C189.919 22.483 189.594 20.703 189.799 20.063C190.011 19.426 191.335 18.198 192.502 17.108C194.627 15.131 196.633 13.27 196.143 11.725Z" fill="#F4F4F4"/>
<path d="M187 8.94348V30.425C185.969 30.0157 184.813 29.3743 183.681 28.7455L183.678 28.744L183.675 28.7422C182.284 27.9678 180.708 27.09 180.031 27.09C179.331 27.098 177.758 27.953 176.371 28.7111C174.52 29.715 172.605 30.751 171.274 30.772C170.811 30.782 170.419 30.6689 170.107 30.446C168.803 29.483 169.33 26.79 169.888 23.946L169.893 23.9226C170.197 22.3672 170.541 20.6058 170.336 19.969C170.13 19.329 168.821 18.085 167.665 16.9871C165.559 14.991 163.572 13.1021 164.08 11.5649C164.587 10.0314 167.299 9.70142 170.167 9.35217L170.187 9.34998C171.77 9.15796 173.563 8.93799 174.112 8.547C174.655 8.15198 175.434 6.521 176.119 5.08203L176.124 5.07288C177.365 2.47314 178.533 0.0269775 180.135 0L180.165 0.00500488C181.783 0.0090332 182.94 2.49097 184.162 5.12195C184.834 6.56897 185.594 8.20605 186.139 8.604C186.313 8.73279 186.616 8.84448 187 8.94348Z" fill="url(#paint4_linear)"/>
<defs>
<linearGradient id="paint0_linear" x1="16" y1="2.5" x2="6.5" y2="31" gradientUnits="userSpaceOnUse">
<stop stop-color="#FCFDBC"/>
<stop offset="1" stop-color="#E79D46"/>
</linearGradient>
<linearGradient id="paint1_linear" x1="57" y1="2.5" x2="47.5" y2="31" gradientUnits="userSpaceOnUse">
<stop stop-color="#FCFDBC"/>
<stop offset="1" stop-color="#E79D46"/>
</linearGradient>
<linearGradient id="paint2_linear" x1="98" y1="2.5" x2="88.5" y2="31" gradientUnits="userSpaceOnUse">
<stop stop-color="#FCFDBC"/>
<stop offset="1" stop-color="#E79D46"/>
</linearGradient>
<linearGradient id="paint3_linear" x1="139" y1="2.5" x2="129.5" y2="31" gradientUnits="userSpaceOnUse">
<stop stop-color="#FCFDBC"/>
<stop offset="1" stop-color="#E79D46"/>
</linearGradient>
<linearGradient id="paint4_linear" x1="180" y1="2.5" x2="170.5" y2="31" gradientUnits="userSpaceOnUse">
<stop stop-color="#FCFDBC"/>
<stop offset="1" stop-color="#E79D46"/>
</linearGradient>
</defs>
</svg>
